<svg width="151" height="149" viewBox="0 0 151 149" fill="none" xmlns="http://www.w3.org/2000/svg">
<path d="M145.636 35.5201C145.636 42.2774 140.158 47.7574 133.4 47.7574C126.642 47.7574 121.164 42.2774 121.164 35.5201C121.164 28.7627 126.642 23.2841 133.4 23.2841C140.158 23.2841 145.636 28.7627 145.636 35.5201Z" stroke="#666666" stroke-width="2.66667" stroke-miterlimit="10" stroke-linecap="round" stroke-linejoin="round"/>
<path d="M126.081 45.3236C122.38 47.2782 117.858 50.8022 117.858 56.9796V64.4756C117.858 66.1209 118.756 67.4542 119.861 67.4542H146.94C148.045 67.4542 148.941 66.1209 148.941 64.4756V56.9796C148.941 50.9462 144.566 47.1662 141 45.1076" stroke="#666666" stroke-width="2.66667" stroke-miterlimit="10" stroke-linecap="round" stroke-linejoin="round"/>
<path d="M29.9664 35.5201C29.9664 42.2774 24.4891 47.7574 17.7304 47.7574C10.9718 47.7574 5.49445 42.2774 5.49445 35.5201C5.49445 28.7627 10.9718 23.2841 17.7304 23.2841C24.4891 23.2841 29.9664 28.7627 29.9664 35.5201Z" stroke="#666666" stroke-width="2.66667" stroke-miterlimit="10" stroke-linecap="round" stroke-linejoin="round"/>
<path d="M10.4104 45.3236C6.70909 47.2782 2.18909 50.8022 2.18909 56.9796V64.4756C2.18909 66.1209 3.08509 67.4542 4.19042 67.4542H31.2704C32.3758 67.4542 33.2718 66.1209 33.2718 64.4756V56.9796C33.2718 50.9462 28.8958 47.1662 25.3291 45.1076" stroke="#666666" stroke-width="2.66667" stroke-miterlimit="10" stroke-linecap="round" stroke-linejoin="round"/>
<path d="M88.6878 28.7414C88.6878 36.1067 82.7158 42.08 75.3491 42.08C67.9824 42.08 62.0104 36.1067 62.0104 28.7414C62.0104 21.3747 67.9824 15.4027 75.3491 15.4027C82.7158 15.4027 88.6878 21.3747 88.6878 28.7414Z" stroke="#666666" stroke-width="2.66667" stroke-miterlimit="10" stroke-linecap="round" stroke-linejoin="round"/>
<path d="M100.55 60.6178V52.2525C100.55 43.9991 94.0924 37.2725 85.9591 36.8031C83.5218 40.0031 79.6831 42.0805 75.3498 42.0805C71.0604 42.0805 67.2551 40.0458 64.8151 36.9005C64.7684 36.8391 64.6938 36.8058 64.6164 36.8111C56.5391 37.3418 50.1484 44.0405 50.1484 52.2525V60.9365" stroke="#666666" stroke-width="2.66667" stroke-miterlimit="10" stroke-linecap="round" stroke-linejoin="round"/>
<path d="M53.395 63.6698C53.395 63.6698 58.667 68.2511 66.6337 70.4391" stroke="#666666" stroke-width="2.66667" stroke-miterlimit="10" stroke-linecap="round" stroke-linejoin="round"/>
<path d="M83.521 86.563C83.521 83.3537 86.1237 80.751 89.3343 80.751H91.6077C94.8183 80.751 97.421 83.3537 97.421 86.563V103.486" stroke="#666666" stroke-width="2.66667" stroke-miterlimit="10" stroke-linecap="round" stroke-linejoin="round"/>
<path d="M97.4209 86.563C97.4209 83.3536 100.024 80.751 103.233 80.751H105.506C108.718 80.751 111.32 83.3536 111.32 86.563V107.258" stroke="#666666" stroke-width="2.66667" stroke-miterlimit="10" stroke-linecap="round" stroke-linejoin="round"/>
<path d="M111.319 89.4029C111.319 86.1936 113.922 83.5909 117.133 83.5909H119.405C122.617 83.5909 125.219 86.1936 125.219 89.4029V129.06L119.809 134.471V146.87H65.3941L65.6701 138.907L42.5647 115.803C39.8807 113.118 40.0754 108.571 43.0021 105.646L45.0741 103.572C48.0007 100.647 52.5474 100.451 55.2327 103.135L67.0874 114.99V56.0816C67.0874 52.2856 70.1647 49.2082 73.9594 49.2082H76.6487C80.4447 49.2082 83.5207 52.2856 83.5207 56.0816V102.972" stroke="#666666" stroke-width="2.66667" stroke-miterlimit="10" stroke-linecap="round" stroke-linejoin="round"/>
<path d="M66.628 70.4602C51.6933 66.5508 40.672 52.9642 40.672 36.8028C40.672 17.5895 56.2493 2.01219 75.4627 2.01219C94.676 2.01219 110.253 17.5895 110.253 36.8028C110.253 53.2415 98.8493 67.0188 83.5227 70.6548" stroke="#666666" stroke-width="2.66667" stroke-miterlimit="10" stroke-linecap="round" stroke-linejoin="round"/>
</svg>
