<svg width="85" height="84" viewBox="0 0 85 84" fill="none" xmlns="http://www.w3.org/2000/svg">
<path d="M1.52028 54.018C1.31228 54.018 1.14294 53.85 1.14294 53.6407V7.71934C1.14294 3.76867 4.35628 0.55667 8.30561 0.55667H49.9656C50.1736 0.55667 50.3429 0.724671 50.3429 0.934004C50.3429 1.14334 50.1736 1.31267 49.9656 1.31267H8.30561C4.77228 1.31267 1.89894 4.18734 1.89894 7.71934V53.6407C1.89894 53.85 1.72961 54.018 1.52028 54.018Z" fill="#E6E6E6"/>
<path d="M1.52028 54.018C1.31228 54.018 1.14294 53.85 1.14294 53.6407V7.71934C1.14294 3.76867 4.35628 0.55667 8.30561 0.55667H49.9656C50.1736 0.55667 50.3429 0.724671 50.3429 0.934004C50.3429 1.14334 50.1736 1.31267 49.9656 1.31267H8.30561C4.77228 1.31267 1.89894 4.18734 1.89894 7.71934V53.6407C1.89894 53.85 1.72961 54.018 1.52028 54.018Z" stroke="#E6E6E6" stroke-width="0.4" stroke-miterlimit="10"/>
<path d="M6.885 59.3826C3.71833 59.3826 1.14233 56.8052 1.14233 53.6399C1.14233 50.4506 3.73967 47.8546 6.929 47.8546C7.13833 47.8546 7.30767 48.0226 7.30767 48.2319C7.30767 48.4412 7.13833 48.6106 6.929 48.6106C4.15567 48.6106 1.89967 50.8666 1.89967 53.6399C1.89967 56.3906 4.13433 58.6266 6.885 58.6266C7.093 58.6266 7.26233 58.7959 7.26233 59.0039C7.26233 59.2132 7.093 59.3826 6.885 59.3826Z" fill="#E6E6E6"/>
<path d="M6.885 59.3826C3.71833 59.3826 1.14233 56.8052 1.14233 53.6399C1.14233 50.4506 3.73967 47.8546 6.929 47.8546C7.13833 47.8546 7.30767 48.0226 7.30767 48.2319C7.30767 48.4412 7.13833 48.6106 6.929 48.6106C4.15567 48.6106 1.89967 50.8666 1.89967 53.6399C1.89967 56.3906 4.13433 58.6266 6.885 58.6266C7.093 58.6266 7.26233 58.7959 7.26233 59.0039C7.26233 59.2132 7.093 59.3826 6.885 59.3826Z" stroke="#E6E6E6" stroke-width="0.4" stroke-miterlimit="10"/>
<path d="M12.596 8.57657C11.7427 8.57657 11.0507 9.2699 11.0507 10.1219V14.6766C11.0507 15.5286 11.7427 16.2206 12.596 16.2206H39.3507C40.204 16.2206 40.896 15.5286 40.896 14.6766V10.1219C40.896 9.2699 40.204 8.57657 39.3507 8.57657H12.596ZM39.3507 16.9779H12.596C11.328 16.9779 10.2947 15.9446 10.2947 14.6766V10.1219C10.2947 8.85257 11.328 7.8219 12.596 7.8219H39.3507C40.62 7.8219 41.652 8.85257 41.652 10.1219V14.6766C41.652 15.9446 40.62 16.9779 39.3507 16.9779Z" fill="#E6E6E6"/>
<path d="M12.596 8.57657C11.7427 8.57657 11.0507 9.2699 11.0507 10.1219V14.6766C11.0507 15.5286 11.7427 16.2206 12.596 16.2206H39.3507C40.204 16.2206 40.896 15.5286 40.896 14.6766V10.1219C40.896 9.2699 40.204 8.57657 39.3507 8.57657H12.596ZM39.3507 16.9779H12.596C11.328 16.9779 10.2947 15.9446 10.2947 14.6766V10.1219C10.2947 8.85257 11.328 7.8219 12.596 7.8219H39.3507C40.62 7.8219 41.652 8.85257 41.652 10.1219V14.6766C41.652 15.9446 40.62 16.9779 39.3507 16.9779Z" stroke="#E6E6E6" stroke-width="0.4" stroke-miterlimit="10"/>
<path d="M8.30524 59.3826C4.35591 59.3826 1.14258 56.1692 1.14258 52.2186V7.7199C1.14258 3.76923 4.35591 0.557234 8.30524 0.557234H49.9652C50.1732 0.557234 50.3426 0.725235 50.3426 0.934569V21.1559C50.3426 21.3639 50.1732 21.5332 49.9652 21.5332C49.7559 21.5332 49.5866 21.3639 49.5866 21.1559V1.3119H8.30524C4.77324 1.3119 1.89858 4.1879 1.89858 7.7199V52.2186C1.89858 55.7519 4.77324 58.6266 8.30524 58.6266C8.51458 58.6266 8.68391 58.7959 8.68391 59.0039C8.68391 59.2132 8.51458 59.3826 8.30524 59.3826Z" fill="#E6E6E6"/>
<path d="M8.30524 59.3826C4.35591 59.3826 1.14258 56.1692 1.14258 52.2186V7.7199C1.14258 3.76923 4.35591 0.557234 8.30524 0.557234H49.9652C50.1732 0.557234 50.3426 0.725235 50.3426 0.934569V21.1559C50.3426 21.3639 50.1732 21.5332 49.9652 21.5332C49.7559 21.5332 49.5866 21.3639 49.5866 21.1559V1.3119H8.30524C4.77324 1.3119 1.89858 4.1879 1.89858 7.7199V52.2186C1.89858 55.7519 4.77324 58.6266 8.30524 58.6266C8.51458 58.6266 8.68391 58.7959 8.68391 59.0039C8.68391 59.2132 8.51458 59.3826 8.30524 59.3826Z" stroke="#E6E6E6" stroke-width="0.4" stroke-miterlimit="10"/>
<path d="M29.9291 59.3826H6.88512C3.71846 59.3826 1.14246 56.8052 1.14246 53.6399C1.14246 50.4506 3.73846 47.8546 6.92912 47.8546H30.0771C30.2878 47.8546 30.4571 48.0226 30.4571 48.2319C30.4571 48.4412 30.2878 48.6106 30.0771 48.6106H6.92912C4.15579 48.6106 1.89979 50.8666 1.89979 53.6399C1.89979 56.3906 4.13446 58.6266 6.88512 58.6266H29.9291C30.1371 58.6266 30.3065 58.7959 30.3065 59.0039C30.3065 59.2132 30.1371 59.3826 29.9291 59.3826Z" fill="#E6E6E6"/>
<path d="M29.9291 59.3826H6.88512C3.71846 59.3826 1.14246 56.8052 1.14246 53.6399C1.14246 50.4506 3.73846 47.8546 6.92912 47.8546H30.0771C30.2878 47.8546 30.4571 48.0226 30.4571 48.2319C30.4571 48.4412 30.2878 48.6106 30.0771 48.6106H6.92912C4.15579 48.6106 1.89979 50.8666 1.89979 53.6399C1.89979 56.3906 4.13446 58.6266 6.88512 58.6266H29.9291C30.1371 58.6266 30.3065 58.7959 30.3065 59.0039C30.3065 59.2132 30.1371 59.3826 29.9291 59.3826Z" stroke="#E6E6E6" stroke-width="0.4" stroke-miterlimit="10"/>
<path d="M12.596 8.57657C11.7427 8.57657 11.0507 9.2699 11.0507 10.1219V14.6766C11.0507 15.5286 11.7427 16.2206 12.596 16.2206H39.3507C40.204 16.2206 40.896 15.5286 40.896 14.6766V10.1219C40.896 9.2699 40.204 8.57657 39.3507 8.57657H12.596ZM39.3507 16.9779H12.596C11.328 16.9779 10.2947 15.9446 10.2947 14.6766V10.1219C10.2947 8.85257 11.328 7.8219 12.596 7.8219H39.3507C40.62 7.8219 41.652 8.85257 41.652 10.1219V14.6766C41.652 15.9446 40.62 16.9779 39.3507 16.9779Z" fill="#E6E6E6"/>
<path d="M12.596 8.57657C11.7427 8.57657 11.0507 9.2699 11.0507 10.1219V14.6766C11.0507 15.5286 11.7427 16.2206 12.596 16.2206H39.3507C40.204 16.2206 40.896 15.5286 40.896 14.6766V10.1219C40.896 9.2699 40.204 8.57657 39.3507 8.57657H12.596ZM39.3507 16.9779H12.596C11.328 16.9779 10.2947 15.9446 10.2947 14.6766V10.1219C10.2947 8.85257 11.328 7.8219 12.596 7.8219H39.3507C40.62 7.8219 41.652 8.85257 41.652 10.1219V14.6766C41.652 15.9446 40.62 16.9779 39.3507 16.9779Z" stroke="#E6E6E6" stroke-width="0.4" stroke-miterlimit="10"/>
<path d="M83.5152 83.7432H40.4352C37.2685 83.7432 34.6938 81.1658 34.6938 78.0005C34.6938 74.8098 37.2898 72.2152 40.4805 72.2152H83.5152C83.7245 72.2152 83.8925 72.3832 83.8925 72.5925C83.8925 72.8018 83.7245 72.9712 83.5152 72.9712H40.4805C37.7058 72.9712 35.4485 75.2272 35.4485 78.0005C35.4485 80.7512 37.6858 82.9872 40.4352 82.9872H83.5152C83.7245 82.9872 83.8925 83.1565 83.8925 83.3645C83.8925 83.5738 83.7245 83.7432 83.5152 83.7432Z" fill="#E6E6E6"/>
<path d="M83.5152 83.7432H40.4352C37.2685 83.7432 34.6938 81.1658 34.6938 78.0005C34.6938 74.8098 37.2898 72.2152 40.4805 72.2152H83.5152C83.7245 72.2152 83.8925 72.3832 83.8925 72.5925C83.8925 72.8018 83.7245 72.9712 83.5152 72.9712H40.4805C37.7058 72.9712 35.4485 75.2272 35.4485 78.0005C35.4485 80.7512 37.6858 82.9872 40.4352 82.9872H83.5152C83.7245 82.9872 83.8925 83.1565 83.8925 83.3645C83.8925 83.5738 83.7245 83.7432 83.5152 83.7432Z" stroke="#E6E6E6" stroke-width="0.4" stroke-miterlimit="10"/>
<path d="M41.856 25.6729C38.324 25.6729 35.4494 28.5476 35.4494 32.0809V75.1449C36.4507 73.3836 38.344 72.2142 40.48 72.2142H83.1374V25.6729H41.856ZM35.1147 77.7156H35.1134C34.9227 77.7142 34.7614 77.5702 34.74 77.3796C34.7107 77.1169 34.6934 76.8502 34.6934 76.5796V32.0809C34.6934 28.1302 37.9067 24.9182 41.856 24.9182H83.5147C83.724 24.9182 83.892 25.0862 83.892 25.2956V72.5916C83.892 72.8022 83.724 72.9716 83.5147 72.9716H40.48C37.944 72.9716 35.8 74.8676 35.492 77.3822C35.468 77.5729 35.3067 77.7156 35.1147 77.7156" fill="#E6E6E6"/>
<path d="M41.856 25.6729C38.324 25.6729 35.4494 28.5476 35.4494 32.0809V75.1449C36.4507 73.3836 38.344 72.2142 40.48 72.2142H83.1374V25.6729H41.856ZM35.1147 77.7156H35.1134C34.9227 77.7142 34.7614 77.5702 34.74 77.3796C34.7107 77.1169 34.6934 76.8502 34.6934 76.5796V32.0809C34.6934 28.1302 37.9067 24.9182 41.856 24.9182H83.5147C83.724 24.9182 83.892 25.0862 83.892 25.2956V72.5916C83.892 72.8022 83.724 72.9716 83.5147 72.9716H40.48C37.944 72.9716 35.8 74.8676 35.492 77.3822C35.468 77.5729 35.3067 77.7156 35.1147 77.7156V77.7156Z" stroke="#E6E6E6" stroke-width="0.4" stroke-miterlimit="10"/>
<path d="M46.1452 32.9372C45.2932 32.9372 44.6012 33.6306 44.6012 34.4826V39.0372C44.6012 39.8892 45.2932 40.5812 46.1452 40.5812H72.9012C73.7532 40.5812 74.4465 39.8892 74.4465 39.0372V34.4826C74.4465 33.6306 73.7532 32.9372 72.9012 32.9372H46.1452ZM72.9012 41.3386H46.1452C44.8772 41.3386 43.8452 40.3052 43.8452 39.0372V34.4826C43.8452 33.2132 44.8772 32.1812 46.1452 32.1812H72.9012C74.1705 32.1812 75.2025 33.2132 75.2025 34.4826V39.0372C75.2025 40.3052 74.1705 41.3386 72.9012 41.3386Z" fill="#E6E6E6"/>
<path d="M46.1452 32.9372C45.2932 32.9372 44.6012 33.6306 44.6012 34.4826V39.0372C44.6012 39.8892 45.2932 40.5812 46.1452 40.5812H72.9012C73.7532 40.5812 74.4465 39.8892 74.4465 39.0372V34.4826C74.4465 33.6306 73.7532 32.9372 72.9012 32.9372H46.1452ZM72.9012 41.3386H46.1452C44.8772 41.3386 43.8452 40.3052 43.8452 39.0372V34.4826C43.8452 33.2132 44.8772 32.1812 46.1452 32.1812H72.9012C74.1705 32.1812 75.2025 33.2132 75.2025 34.4826V39.0372C75.2025 40.3052 74.1705 41.3386 72.9012 41.3386Z" stroke="#E6E6E6" stroke-width="0.4" stroke-miterlimit="10"/>
</svg>
