<svg width="107" height="98" viewBox="0 0 107 98" fill="none" xmlns="http://www.w3.org/2000/svg">
<path d="M66.0816 23.8917C66.0816 36.1903 56.111 46.1597 43.8123 46.1597C31.5136 46.1597 21.5443 36.1903 21.5443 23.8917C21.5443 11.5917 31.5136 1.62234 43.8123 1.62234C56.111 1.62234 66.0816 11.5917 66.0816 23.8917Z" stroke="#666666" stroke-width="2.66667" stroke-miterlimit="10" stroke-linecap="round" stroke-linejoin="round"/>
<path d="M61.5243 37.3502C57.4563 42.6955 51.047 46.1595 43.8123 46.1595C36.6523 46.1595 30.299 42.7662 26.2257 37.5142C26.147 37.4115 26.023 37.3542 25.8937 37.3635C12.4097 38.2502 1.73901 49.4355 1.73901 63.1448V76.7862C1.73901 79.7782 4.16435 82.2062 7.15902 82.2062H80.4657C83.459 82.2062 85.8857 79.7782 85.8857 76.7848V63.1448C85.8857 49.3662 75.1057 38.1355 61.5243 37.3502Z" stroke="#666666" stroke-width="2.66667" stroke-miterlimit="10" stroke-linecap="round" stroke-linejoin="round"/>
<path d="M106.431 73.3475C106.431 86.4741 95.7907 97.1141 82.664 97.1141C69.5373 97.1141 58.8973 86.4741 58.8973 73.3475C58.8973 60.2208 69.5373 49.5808 82.664 49.5808C95.7907 49.5808 106.431 60.2208 106.431 73.3475Z" fill="white"/>
<path d="M101.847 73.3474C101.847 83.942 93.2592 92.5327 82.6632 92.5327C72.0686 92.5327 63.4792 83.942 63.4792 73.3474C63.4792 62.7514 72.0686 54.162 82.6632 54.162C93.2592 54.162 101.847 62.7514 101.847 73.3474Z" fill="white"/>
<path d="M101.847 73.3474C101.847 83.942 93.2592 92.5327 82.6632 92.5327C72.0686 92.5327 63.4792 83.942 63.4792 73.3474C63.4792 62.7514 72.0686 54.162 82.6632 54.162C93.2592 54.162 101.847 62.7514 101.847 73.3474Z" stroke="#666666" stroke-width="2.66667" stroke-miterlimit="10" stroke-linecap="round" stroke-linejoin="round"/>
<path d="M82.6636 63.6105V83.0839" stroke="#666666" stroke-width="2.66667" stroke-miterlimit="10" stroke-linecap="round" stroke-linejoin="round"/>
<path d="M92.4007 73.3474H72.9274" stroke="#666666" stroke-width="2.66667" stroke-miterlimit="10" stroke-linecap="round" stroke-linejoin="round"/>
</svg>
