<svg width="92" height="67" viewBox="0 0 92 67" fill="none" xmlns="http://www.w3.org/2000/svg">
<path d="M7.91354 18.5349L50.5909 27.8989L89.6042 10.2856L49.1109 1.10959L7.91354 18.5349ZM50.6309 28.6736C50.6042 28.6736 50.5775 28.6709 50.5509 28.6656L6.59221 19.0176C6.43088 18.9829 6.31221 18.8469 6.29621 18.6829C6.28021 18.5189 6.37354 18.3643 6.52554 18.3003L48.9295 0.365587C49.0002 0.33492 49.0829 0.326919 49.1602 0.344253L90.8722 9.79759C91.0309 9.83359 91.1482 9.96692 91.1642 10.1283C91.1802 10.2896 91.0922 10.4443 90.9429 10.5109L50.7869 28.6403C50.7375 28.6629 50.6842 28.6736 50.6309 28.6736" fill="#E6E6E6"/>
<path d="M7.91354 18.5349L50.5909 27.8989L89.6042 10.2856L49.1109 1.10959L7.91354 18.5349ZM50.6309 28.6736C50.6042 28.6736 50.5775 28.6709 50.5509 28.6656L6.59221 19.0176C6.43088 18.9829 6.31221 18.8469 6.29621 18.6829C6.28021 18.5189 6.37354 18.3643 6.52554 18.3003L48.9295 0.365587C49.0002 0.33492 49.0829 0.326919 49.1602 0.344253L90.8722 9.79759C91.0309 9.83359 91.1482 9.96692 91.1642 10.1283C91.1802 10.2896 91.0922 10.4443 90.9429 10.5109L50.7869 28.6403C50.7375 28.6629 50.6842 28.6736 50.6309 28.6736V28.6736Z" stroke="#E6E6E6" stroke-width="0.4" stroke-miterlimit="10"/>
<path d="M50.6313 41.1378C50.6046 41.1378 50.578 41.1351 50.5513 41.1298L5.17264 31.2818L4.86864 31.1791C2.25931 30.2604 0.504639 27.7138 0.504639 24.8404C0.504639 21.6298 2.96464 18.8151 6.22597 18.2938C6.43397 18.2618 6.62731 18.4018 6.65931 18.6084C6.69264 18.8138 6.55264 19.0071 6.34597 19.0418C3.44731 19.5031 1.26064 21.9978 1.26064 24.8404C1.26064 27.3924 2.81131 29.6538 5.11931 30.4658L5.37798 30.5564L50.59 40.3644L90.6326 22.2844C90.8246 22.1978 91.0473 22.2831 91.1326 22.4738C91.218 22.6658 91.134 22.8884 90.9433 22.9751L50.7873 41.1058C50.738 41.1271 50.6846 41.1378 50.6313 41.1378Z" fill="#E6E6E6"/>
<path d="M50.6313 41.1378C50.6046 41.1378 50.578 41.1351 50.5513 41.1298L5.17264 31.2818L4.86864 31.1791C2.25931 30.2604 0.504639 27.7138 0.504639 24.8404C0.504639 21.6298 2.96464 18.8151 6.22597 18.2938C6.43397 18.2618 6.62731 18.4018 6.65931 18.6084C6.69264 18.8138 6.55264 19.0071 6.34597 19.0418C3.44731 19.5031 1.26064 21.9978 1.26064 24.8404C1.26064 27.3924 2.81131 29.6538 5.11931 30.4658L5.37798 30.5564L50.59 40.3644L90.6326 22.2844C90.8246 22.1978 91.0473 22.2831 91.1326 22.4738C91.218 22.6658 91.134 22.8884 90.9433 22.9751L50.7873 41.1058C50.738 41.1271 50.6846 41.1378 50.6313 41.1378Z" stroke="#E6E6E6" stroke-width="0.4" stroke-miterlimit="10"/>
<path d="M50.3521 53.6976C50.3255 53.6976 50.2988 53.695 50.2708 53.6896L4.89212 43.8416L4.59079 43.7403C1.97879 42.8216 0.224121 40.2736 0.224121 37.4003C0.224121 34.1896 2.68412 31.3763 5.94679 30.8536C6.15612 30.8216 6.34679 30.9616 6.38012 31.1683C6.41345 31.375 6.27212 31.5683 6.06679 31.6016C3.16679 32.0643 0.981455 34.559 0.981455 37.4003C0.981455 39.9536 2.53212 42.215 4.83879 43.027L5.09745 43.115L50.3108 52.9243L90.3534 34.8443C90.5441 34.759 90.7681 34.843 90.8534 35.0336C90.9388 35.2256 90.8548 35.4483 90.6641 35.535L50.5081 53.6656C50.4588 53.687 50.4055 53.6976 50.3521 53.6976Z" fill="#E6E6E6"/>
<path d="M50.3521 53.6976C50.3255 53.6976 50.2988 53.695 50.2708 53.6896L4.89212 43.8416L4.59079 43.7403C1.97879 42.8216 0.224121 40.2736 0.224121 37.4003C0.224121 34.1896 2.68412 31.3763 5.94679 30.8536C6.15612 30.8216 6.34679 30.9616 6.38012 31.1683C6.41345 31.375 6.27212 31.5683 6.06679 31.6016C3.16679 32.0643 0.981455 34.559 0.981455 37.4003C0.981455 39.9536 2.53212 42.215 4.83879 43.027L5.09745 43.115L50.3108 52.9243L90.3534 34.8443C90.5441 34.759 90.7681 34.843 90.8534 35.0336C90.9388 35.2256 90.8548 35.4483 90.6641 35.535L50.5081 53.6656C50.4588 53.687 50.4055 53.6976 50.3521 53.6976Z" stroke="#E6E6E6" stroke-width="0.4" stroke-miterlimit="10"/>
<path d="M50.3521 66.5075C50.3255 66.5075 50.2988 66.5035 50.2708 66.4982L4.89212 56.6502L4.59079 56.5488C1.97879 55.6288 0.224121 53.0822 0.224121 50.2088C0.224121 46.9982 2.68412 44.1848 5.94679 43.6622C6.15612 43.6288 6.34679 43.7702 6.38012 43.9768C6.41345 44.1835 6.27212 44.3768 6.06679 44.4102C3.16679 44.8728 0.981455 47.3675 0.981455 50.2088C0.981455 52.7608 2.53212 55.0222 4.83879 55.8355L5.09745 55.9248L50.3108 65.7328L90.3534 47.6528C90.5441 47.5688 90.7681 47.6515 90.8534 47.8422C90.9388 48.0342 90.8548 48.2568 90.6641 48.3435L50.5081 66.4742C50.4588 66.4955 50.4055 66.5075 50.3521 66.5075Z" fill="#E6E6E6"/>
<path d="M50.3521 66.5075C50.3255 66.5075 50.2988 66.5035 50.2708 66.4982L4.89212 56.6502L4.59079 56.5488C1.97879 55.6288 0.224121 53.0822 0.224121 50.2088C0.224121 46.9982 2.68412 44.1848 5.94679 43.6622C6.15612 43.6288 6.34679 43.7702 6.38012 43.9768C6.41345 44.1835 6.27212 44.3768 6.06679 44.4102C3.16679 44.8728 0.981455 47.3675 0.981455 50.2088C0.981455 52.7608 2.53212 55.0222 4.83879 55.8355L5.09745 55.9248L50.3108 65.7328L90.3534 47.6528C90.5441 47.5688 90.7681 47.6515 90.8534 47.8422C90.9388 48.0342 90.8548 48.2568 90.6641 48.3435L50.5081 66.4742C50.4588 66.4955 50.4055 66.5075 50.3521 66.5075Z" stroke="#E6E6E6" stroke-width="0.4" stroke-miterlimit="10"/>
<path d="M14.8628 26.3552C14.8628 26.3552 13.0521 27.7979 13.1721 30.6966C13.2934 33.5939 13.1721 45.4272 13.1721 45.4272L18.7254 39.7526L24.0388 47.8406V31.4206C24.0388 31.4206 24.5214 29.0059 25.7294 28.4632L14.8628 26.3552Z" fill="#E6E6E6"/>
<path d="M14.8628 26.3552C14.8628 26.3552 13.0521 27.7979 13.1721 30.6966C13.2934 33.5939 13.1721 45.4272 13.1721 45.4272L18.7254 39.7526L24.0388 47.8406V31.4206C24.0388 31.4206 24.5214 29.0059 25.7294 28.4632L14.8628 26.3552Z" stroke="#E6E6E6" stroke-width="0.4" stroke-miterlimit="10"/>
</svg>
