<svg width="132" height="110" viewBox="0 0 132 110" fill="none" xmlns="http://www.w3.org/2000/svg">
<path d="M68.7236 49.8291H62.7636C49.5889 49.8291 38.9103 60.5091 38.9103 73.6838V100.406C38.9103 104.742 42.4249 108.257 46.7609 108.257H84.7263C89.0623 108.257 92.5783 104.742 92.5783 100.406V73.6838C92.5783 60.5091 81.8983 49.8291 68.7236 49.8291Z" stroke="#666666" stroke-width="2.66667" stroke-miterlimit="10" stroke-linecap="round" stroke-linejoin="round"/>
<path d="M85.3432 21.3344C85.3432 32.1584 76.5685 40.9344 65.7432 40.9344C54.9192 40.9344 46.1445 32.1584 46.1445 21.3344C46.1445 10.5104 54.9192 1.73572 65.7432 1.73572C76.5685 1.73572 85.3432 10.5104 85.3432 21.3344Z" stroke="#666666" stroke-width="2.66667" stroke-miterlimit="10" stroke-linecap="round" stroke-linejoin="round"/>
<path d="M122.777 34.2823C122.777 42.2743 116.298 48.7543 108.305 48.7543C100.313 48.7543 93.834 42.2743 93.834 34.2823C93.834 26.2903 100.313 19.8103 108.305 19.8103C116.298 19.8103 122.777 26.2903 122.777 34.2823Z" stroke="#666666" stroke-width="2.66667" stroke-miterlimit="10" stroke-linecap="round" stroke-linejoin="round"/>
<path d="M112.199 56.8096H103.687C102.491 56.8096 101.324 56.9322 100.195 57.1589C102.32 60.0816 103.588 63.6696 103.588 67.5602V102.422C103.588 103.226 103.425 103.991 103.131 104.687H119.477C125.251 104.687 129.931 100.007 129.931 94.2336V74.5429C129.931 64.7496 121.992 56.8096 112.199 56.8096Z" stroke="#666666" stroke-width="2.66667" stroke-miterlimit="10" stroke-linecap="round" stroke-linejoin="round"/>
<path d="M8.82446 34.2823C8.82446 42.2743 15.3031 48.7543 23.2965 48.7543C31.2885 48.7543 37.7658 42.2743 37.7658 34.2823C37.7658 26.2903 31.2885 19.8103 23.2965 19.8103C15.3031 19.8103 8.82446 26.2903 8.82446 34.2823Z" stroke="#666666" stroke-width="2.66667" stroke-miterlimit="10" stroke-linecap="round" stroke-linejoin="round"/>
<path d="M19.4034 56.8096H27.9154C29.1114 56.8096 30.278 56.9322 31.4074 57.1589C29.282 60.0816 28.014 63.6696 28.014 67.5602V102.422C28.014 103.226 28.1754 103.991 28.47 104.687H12.1234C6.35138 104.687 1.67004 100.007 1.67004 94.2336V74.5429C1.67004 64.7496 9.60871 56.8096 19.4034 56.8096Z" stroke="#666666" stroke-width="2.66667" stroke-miterlimit="10" stroke-linecap="round" stroke-linejoin="round"/>
</svg>
