<svg width="147" height="125" viewBox="0 0 147 125" fill="none" xmlns="http://www.w3.org/2000/svg">
<path d="M45.6936 83.099C45.6936 91.5657 38.8309 98.4283 30.3642 98.4283C21.8962 98.4283 15.0336 91.5657 15.0336 83.099C15.0336 74.631 21.8962 67.7683 30.3642 67.7683C38.8309 67.7683 45.6936 74.631 45.6936 83.099Z" stroke="#E6E6E6" stroke-width="2.66667" stroke-miterlimit="10" stroke-linecap="round" stroke-linejoin="round"/>
<path d="M42.5568 92.3634C39.7554 96.0434 35.3448 98.4287 30.3634 98.4287C25.4341 98.4287 21.0621 96.0914 18.2568 92.4767C18.2021 92.4061 18.1168 92.3661 18.0288 92.3727C8.74609 92.9834 1.40076 100.683 1.40076 110.119V119.51C1.40076 121.571 3.07142 123.242 5.13142 123.242H55.5954C57.6568 123.242 59.3274 121.571 59.3274 119.51V110.119C59.3274 100.635 51.9061 92.9034 42.5568 92.3634Z" stroke="#E6E6E6" stroke-width="2.66667" stroke-miterlimit="10" stroke-linecap="round" stroke-linejoin="round"/>
<path d="M131.305 83.099C131.305 91.5657 124.443 98.4283 115.975 98.4283C107.508 98.4283 100.645 91.5657 100.645 83.099C100.645 74.631 107.508 67.7683 115.975 67.7683C124.443 67.7683 131.305 74.631 131.305 83.099Z" stroke="#E6E6E6" stroke-width="2.66667" stroke-miterlimit="10" stroke-linecap="round" stroke-linejoin="round"/>
<path d="M128.167 92.3634C125.367 96.0434 120.955 98.4287 115.974 98.4287C111.045 98.4287 106.673 96.0914 103.869 92.4767C103.814 92.4061 103.729 92.3661 103.639 92.3727C94.3581 92.9834 87.0115 100.683 87.0115 110.119V119.51C87.0115 121.571 88.6821 123.242 90.7435 123.242H141.207C143.267 123.242 144.938 121.571 144.938 119.51V110.119C144.938 100.635 137.518 92.9034 128.167 92.3634Z" stroke="#E6E6E6" stroke-width="2.66667" stroke-miterlimit="10" stroke-linecap="round" stroke-linejoin="round"/>
<path d="M88.6231 17.2911C88.6231 25.7578 81.7605 32.6218 73.2938 32.6218C64.8258 32.6218 57.9631 25.7578 57.9631 17.2911C57.9631 8.82443 64.8258 1.96043 73.2938 1.96043C81.7605 1.96043 88.6231 8.82443 88.6231 17.2911Z" stroke="#E6E6E6" stroke-width="2.66667" stroke-miterlimit="10" stroke-linecap="round" stroke-linejoin="round"/>
<path d="M85.4864 26.556C82.6851 30.2347 78.2731 32.6214 73.2931 32.6214C68.3638 32.6214 63.9904 30.284 61.1864 26.668C61.1318 26.5987 61.0464 26.5587 60.9584 26.564C51.6758 27.1747 44.3304 34.876 44.3304 44.312V53.704C44.3304 55.764 46.0011 57.4347 48.0611 57.4347H98.5251C100.586 57.4347 102.257 55.764 102.257 53.7027V44.312C102.257 34.828 94.8358 27.096 85.4864 26.556Z" stroke="#E6E6E6" stroke-width="2.66667" stroke-miterlimit="10" stroke-linecap="round" stroke-linejoin="round"/>
<path d="M73.2938 71.1902V83.7928" stroke="#E6E6E6" stroke-width="2.66667" stroke-miterlimit="10" stroke-linecap="round" stroke-linejoin="round"/>
<path d="M83.1362 91.4426L73.2936 83.7933" stroke="#E6E6E6" stroke-width="2.66667" stroke-miterlimit="10" stroke-linecap="round" stroke-linejoin="round"/>
<path d="M63.45 91.4426L73.294 83.7933" stroke="#E6E6E6" stroke-width="2.66667" stroke-miterlimit="10" stroke-linecap="round" stroke-linejoin="round"/>
</svg>
