<svg width="88" height="78" viewBox="0 0 88 78" fill="none" xmlns="http://www.w3.org/2000/svg">
<path d="M8.15064 26.6118H0.92664C0.717307 26.6118 0.547974 26.4424 0.547974 26.2344V8.70509C0.547974 4.29042 4.13997 0.698424 8.55597 0.698424C12.9706 0.698424 16.5626 4.29042 16.5626 8.70509C16.5626 8.91576 16.3946 9.08376 16.184 9.08376C15.976 9.08376 15.8066 8.91576 15.8066 8.70509C15.8066 4.70776 12.5546 1.45442 8.55597 1.45442C4.55731 1.45442 1.30397 4.70776 1.30397 8.70509V25.8571H8.15064C8.35864 25.8571 8.52797 26.0251 8.52797 26.2344C8.52797 26.4424 8.35864 26.6118 8.15064 26.6118Z" fill="#E6E6E6"/>
<path d="M8.15064 26.6118H0.92664C0.717307 26.6118 0.547974 26.4424 0.547974 26.2344V8.70509C0.547974 4.29042 4.13997 0.698424 8.55597 0.698424C12.9706 0.698424 16.5626 4.29042 16.5626 8.70509C16.5626 8.91576 16.3946 9.08376 16.184 9.08376C15.976 9.08376 15.8066 8.91576 15.8066 8.70509C15.8066 4.70776 12.5546 1.45442 8.55597 1.45442C4.55731 1.45442 1.30397 4.70776 1.30397 8.70509V25.8571H8.15064C8.35864 25.8571 8.52797 26.0251 8.52797 26.2344C8.52797 26.4424 8.35864 26.6118 8.15064 26.6118Z" stroke="#E6E6E6" stroke-width="0.4" stroke-miterlimit="10"/>
<path d="M0.926274 9.08441C0.716941 9.08441 0.547607 8.91508 0.547607 8.70574V8.58974C0.547607 4.23908 4.08761 0.699079 8.43961 0.699079H8.55561C8.76361 0.699079 8.93294 0.868412 8.93294 1.07641C8.93294 1.28575 8.76361 1.45375 8.55561 1.45375C4.55694 1.45375 1.30361 4.70841 1.30361 8.70574C1.30361 8.91508 1.13427 9.08441 0.926274 9.08441Z" fill="#E6E6E6"/>
<path d="M0.926274 9.08441C0.716941 9.08441 0.547607 8.91508 0.547607 8.70574V8.58974C0.547607 4.23908 4.08761 0.699079 8.43961 0.699079H8.55561C8.76361 0.699079 8.93294 0.868412 8.93294 1.07641C8.93294 1.28575 8.76361 1.45375 8.55561 1.45375C4.55694 1.45375 1.30361 4.70841 1.30361 8.70574C1.30361 8.91508 1.13427 9.08441 0.926274 9.08441Z" stroke="#E6E6E6" stroke-width="0.4" stroke-miterlimit="10"/>
<path d="M37.0971 74.3265H28.2118C27.6025 74.3265 26.9851 74.2812 26.3771 74.1892C26.3411 74.1892 26.3051 74.1852 26.2731 74.1759C20.3105 73.2385 15.8211 67.9852 15.8211 61.9345V56.7292C15.8118 56.6959 15.8065 56.6625 15.8065 56.6292V8.70521C15.8065 4.70788 12.5545 1.45454 8.5558 1.45454C8.34647 1.45454 8.17847 1.28654 8.17847 1.07588C8.17847 0.867876 8.34647 0.698542 8.5558 0.698542H62.4011C67.3398 0.698542 71.3585 4.71721 71.3585 9.65721V21.4345C71.3585 21.6425 71.1891 21.8119 70.9798 21.8119C70.7718 21.8119 70.6025 21.6425 70.6025 21.4345V9.65721C70.6025 5.13454 66.9225 1.45454 62.4011 1.45454H11.9518C14.6745 2.73454 16.5625 5.50388 16.5625 8.70521V56.5265C16.5718 56.5599 16.5771 56.5932 16.5771 56.6292V61.9345C16.5771 67.6319 20.8171 72.5772 26.4411 73.4359L26.4598 73.4399C26.4731 73.4399 26.4838 73.4412 26.4878 73.4425C27.0598 73.5265 27.6398 73.5705 28.2118 73.5705H37.0971C37.3065 73.5705 37.4745 73.7399 37.4745 73.9479C37.4745 74.1572 37.3065 74.3265 37.0971 74.3265Z" fill="#E6E6E6"/>
<path d="M37.0971 74.3265H28.2118C27.6025 74.3265 26.9851 74.2812 26.3771 74.1892C26.3411 74.1892 26.3051 74.1852 26.2731 74.1759C20.3105 73.2385 15.8211 67.9852 15.8211 61.9345V56.7292C15.8118 56.6959 15.8065 56.6625 15.8065 56.6292V8.70521C15.8065 4.70788 12.5545 1.45454 8.5558 1.45454C8.34647 1.45454 8.17847 1.28654 8.17847 1.07588C8.17847 0.867876 8.34647 0.698542 8.5558 0.698542H62.4011C67.3398 0.698542 71.3585 4.71721 71.3585 9.65721V21.4345C71.3585 21.6425 71.1891 21.8119 70.9798 21.8119C70.7718 21.8119 70.6025 21.6425 70.6025 21.4345V9.65721C70.6025 5.13454 66.9225 1.45454 62.4011 1.45454H11.9518C14.6745 2.73454 16.5625 5.50388 16.5625 8.70521V56.5265C16.5718 56.5599 16.5771 56.5932 16.5771 56.6292V61.9345C16.5771 67.6319 20.8171 72.5772 26.4411 73.4359L26.4598 73.4399C26.4731 73.4399 26.4838 73.4412 26.4878 73.4425C27.0598 73.5265 27.6398 73.5705 28.2118 73.5705H37.0971C37.3065 73.5705 37.4745 73.7399 37.4745 73.9479C37.4745 74.1572 37.3065 74.3265 37.0971 74.3265Z" stroke="#E6E6E6" stroke-width="0.4" stroke-miterlimit="10"/>
<path d="M50.682 24.7197H27.4233C27.2127 24.7197 27.0447 24.5504 27.0447 24.3411C27.0447 24.1331 27.2127 23.9637 27.4233 23.9637H50.682C50.8913 23.9637 51.0607 24.1331 51.0607 24.3411C51.0607 24.5504 50.8913 24.7197 50.682 24.7197Z" fill="#E6E6E6"/>
<path d="M50.682 24.7197H27.4233C27.2127 24.7197 27.0447 24.5504 27.0447 24.3411C27.0447 24.1331 27.2127 23.9637 27.4233 23.9637H50.682C50.8913 23.9637 51.0607 24.1331 51.0607 24.3411C51.0607 24.5504 50.8913 24.7197 50.682 24.7197Z" stroke="#E6E6E6" stroke-width="0.4" stroke-miterlimit="10"/>
<path d="M41.9149 31.2953H27.4229C27.2135 31.2953 27.0455 31.126 27.0455 30.918C27.0455 30.7087 27.2135 30.5393 27.4229 30.5393H41.9149C42.1229 30.5393 42.2922 30.7087 42.2922 30.918C42.2922 31.126 42.1229 31.2953 41.9149 31.2953Z" fill="#E6E6E6"/>
<path d="M41.9149 31.2953H27.4229C27.2135 31.2953 27.0455 31.126 27.0455 30.918C27.0455 30.7087 27.2135 30.5393 27.4229 30.5393H41.9149C42.1229 30.5393 42.2922 30.7087 42.2922 30.918C42.2922 31.126 42.1229 31.2953 41.9149 31.2953Z" stroke="#E6E6E6" stroke-width="0.4" stroke-miterlimit="10"/>
<path d="M44.7153 40.1846H27.422C27.2127 40.1846 27.0447 40.0166 27.0447 39.8073C27.0447 39.5993 27.2127 39.43 27.422 39.43H44.7153C44.9233 39.43 45.0927 39.5993 45.0927 39.8073C45.0927 40.0166 44.9233 40.1846 44.7153 40.1846Z" fill="#E6E6E6"/>
<path d="M44.7153 40.1846H27.422C27.2127 40.1846 27.0447 40.0166 27.0447 39.8073C27.0447 39.5993 27.2127 39.43 27.422 39.43H44.7153C44.9233 39.43 45.0927 39.5993 45.0927 39.8073C45.0927 40.0166 44.9233 40.1846 44.7153 40.1846Z" stroke="#E6E6E6" stroke-width="0.4" stroke-miterlimit="10"/>
<path d="M36.1909 47.3708H27.4229C27.2135 47.3708 27.0455 47.2015 27.0455 46.9921C27.0455 46.7841 27.2135 46.6148 27.4229 46.6148H36.1909C36.3989 46.6148 36.5682 46.7841 36.5682 46.9921C36.5682 47.2015 36.3989 47.3708 36.1909 47.3708Z" fill="#E6E6E6"/>
<path d="M36.1909 47.3708H27.4229C27.2135 47.3708 27.0455 47.2015 27.0455 46.9921C27.0455 46.7841 27.2135 46.6148 27.4229 46.6148H36.1909C36.3989 46.6148 36.5682 46.7841 36.5682 46.9921C36.5682 47.2015 36.3989 47.3708 36.1909 47.3708Z" stroke="#E6E6E6" stroke-width="0.4" stroke-miterlimit="10"/>
<path d="M57.183 57.4295C57.1284 57.4295 57.0737 57.4175 57.0217 57.3935C56.8324 57.3028 56.7524 57.0775 56.8417 56.8895C56.8524 56.8655 57.9777 54.5028 59.9604 51.0295C63.8777 44.1748 70.211 34.5548 78.143 27.6562C78.3004 27.5175 78.5404 27.5362 78.6764 27.6922C78.8137 27.8495 78.7964 28.0895 78.639 28.2268C70.7884 35.0562 64.5057 44.6002 60.6177 51.4042C58.6497 54.8495 57.5377 57.1895 57.5257 57.2135C57.4604 57.3495 57.3244 57.4295 57.183 57.4295Z" fill="#E6E6E6"/>
<path d="M57.183 57.4295C57.1284 57.4295 57.0737 57.4175 57.0217 57.3935C56.8324 57.3028 56.7524 57.0775 56.8417 56.8895C56.8524 56.8655 57.9777 54.5028 59.9604 51.0295C63.8777 44.1748 70.211 34.5548 78.143 27.6562C78.3004 27.5175 78.5404 27.5362 78.6764 27.6922C78.8137 27.8495 78.7964 28.0895 78.639 28.2268C70.7884 35.0562 64.5057 44.6002 60.6177 51.4042C58.6497 54.8495 57.5377 57.1895 57.5257 57.2135C57.4604 57.3495 57.3244 57.4295 57.183 57.4295Z" stroke="#E6E6E6" stroke-width="0.4" stroke-miterlimit="10"/>
<path d="M60.2884 51.5948C60.1897 51.5948 60.0924 51.5575 60.0164 51.4801C53.7817 45.0388 63.3244 34.4161 63.7351 33.9668C63.8751 33.8135 64.1151 33.8015 64.2684 33.9428C64.4244 34.0828 64.4337 34.3228 64.2937 34.4761C64.1991 34.5815 54.8164 45.0215 60.5604 50.9548C60.7057 51.1041 60.7017 51.3441 60.5511 51.4895C60.4791 51.5601 60.3831 51.5948 60.2884 51.5948Z" fill="#E6E6E6"/>
<path d="M60.2884 51.5948C60.1897 51.5948 60.0924 51.5575 60.0164 51.4801C53.7817 45.0388 63.3244 34.4161 63.7351 33.9668C63.8751 33.8135 64.1151 33.8015 64.2684 33.9428C64.4244 34.0828 64.4337 34.3228 64.2937 34.4761C64.1991 34.5815 54.8164 45.0215 60.5604 50.9548C60.7057 51.1041 60.7017 51.3441 60.5511 51.4895C60.4791 51.5601 60.3831 51.5948 60.2884 51.5948Z" stroke="#E6E6E6" stroke-width="0.4" stroke-miterlimit="10"/>
<path d="M65.4694 37.6143C65.436 37.6143 65.4 37.6089 65.3667 37.5996C65.1654 37.5423 65.048 37.3343 65.1054 37.1343L66.9094 30.7463C66.924 30.6969 66.948 30.6489 66.9814 30.6089C67.0534 30.5196 74.496 21.4823 86.5027 21.6783C86.6414 21.6796 86.768 21.7556 86.8307 21.8783C86.896 22.0009 86.8894 22.1463 86.8147 22.2623C85.4227 24.3889 82.6894 28.6743 82.3147 29.6676C82.24 29.8623 82.0214 29.9609 81.828 29.8876C81.6307 29.8129 81.5334 29.5943 81.6067 29.3996C82.02 28.3089 84.7734 24.0196 85.8 22.4329C75.0854 22.5876 68.252 30.2823 67.6147 31.0289L65.832 37.3383C65.7854 37.5049 65.6347 37.6143 65.4694 37.6143Z" fill="#E6E6E6"/>
<path d="M65.4694 37.6143C65.436 37.6143 65.4 37.6089 65.3667 37.5996C65.1654 37.5423 65.048 37.3343 65.1054 37.1343L66.9094 30.7463C66.924 30.6969 66.948 30.6489 66.9814 30.6089C67.0534 30.5196 74.496 21.4823 86.5027 21.6783C86.6414 21.6796 86.768 21.7556 86.8307 21.8783C86.896 22.0009 86.8894 22.1463 86.8147 22.2623C85.4227 24.3889 82.6894 28.6743 82.3147 29.6676C82.24 29.8623 82.0214 29.9609 81.828 29.8876C81.6307 29.8129 81.5334 29.5943 81.6067 29.3996C82.02 28.3089 84.7734 24.0196 85.8 22.4329C75.0854 22.5876 68.252 30.2823 67.6147 31.0289L65.832 37.3383C65.7854 37.5049 65.6347 37.6143 65.4694 37.6143Z" stroke="#E6E6E6" stroke-width="0.4" stroke-miterlimit="10"/>
<path d="M71.9408 43.2653C71.7848 43.2653 71.6395 43.1693 71.5835 43.0147C71.5155 42.816 71.6181 42.6013 71.8141 42.5307L78.2008 40.2693L79.3528 33.7773C79.3888 33.5707 79.5861 33.4293 79.7901 33.4707C79.9968 33.508 80.1341 33.704 80.0968 33.908L78.9088 40.6173C78.8835 40.7507 78.7901 40.8627 78.6621 40.908L72.0675 43.244C72.0248 43.2587 71.9835 43.2653 71.9408 43.2653Z" fill="#E6E6E6"/>
<path d="M71.9408 43.2653C71.7848 43.2653 71.6395 43.1693 71.5835 43.0147C71.5155 42.816 71.6181 42.6013 71.8141 42.5307L78.2008 40.2693L79.3528 33.7773C79.3888 33.5707 79.5861 33.4293 79.7901 33.4707C79.9968 33.508 80.1341 33.704 80.0968 33.908L78.9088 40.6173C78.8835 40.7507 78.7901 40.8627 78.6621 40.908L72.0675 43.244C72.0248 43.2587 71.9835 43.2653 71.9408 43.2653Z" stroke="#E6E6E6" stroke-width="0.4" stroke-miterlimit="10"/>
<path d="M65.1195 53.9099C63.9328 53.9099 62.7915 53.5299 61.7115 52.7752C61.5408 52.6552 61.4995 52.4192 61.6195 52.2485C61.7395 52.0765 61.9741 52.0379 62.1475 52.1552C63.4661 53.0779 64.8835 53.3619 66.3661 52.9965C71.4021 51.7579 75.6861 43.5792 75.7275 43.4965C75.8235 43.3112 76.0541 43.2392 76.2381 43.3339C76.4235 43.4312 76.4955 43.6592 76.4008 43.8445C76.2195 44.1939 71.9128 52.4112 66.5448 53.7312C66.0635 53.8512 65.5888 53.9099 65.1195 53.9099Z" fill="#E6E6E6"/>
<path d="M65.1195 53.9099C63.9328 53.9099 62.7915 53.5299 61.7115 52.7752C61.5408 52.6552 61.4995 52.4192 61.6195 52.2485C61.7395 52.0765 61.9741 52.0379 62.1475 52.1552C63.4661 53.0779 64.8835 53.3619 66.3661 52.9965C71.4021 51.7579 75.6861 43.5792 75.7275 43.4965C75.8235 43.3112 76.0541 43.2392 76.2381 43.3339C76.4235 43.4312 76.4955 43.6592 76.4008 43.8445C76.2195 44.1939 71.9128 52.4112 66.5448 53.7312C66.0635 53.8512 65.5888 53.9099 65.1195 53.9099Z" stroke="#E6E6E6" stroke-width="0.4" stroke-miterlimit="10"/>
<path d="M49.648 57.6872C48.3386 57.6872 47.272 58.7539 47.272 60.0632C47.272 61.3739 48.3386 62.4379 49.648 62.4379H59C60.3093 62.4379 61.376 61.3739 61.376 60.0632C61.376 58.7539 60.3093 57.6872 59 57.6872H49.648ZM59 63.1952H49.648C47.9213 63.1952 46.5146 61.7899 46.5146 60.0632C46.5146 58.3352 47.9213 56.9312 49.648 56.9312H59C60.728 56.9312 62.132 58.3352 62.132 60.0632C62.132 61.7899 60.728 63.1952 59 63.1952" fill="#E6E6E6"/>
<path d="M49.648 57.6872C48.3386 57.6872 47.272 58.7539 47.272 60.0632C47.272 61.3739 48.3386 62.4379 49.648 62.4379H59C60.3093 62.4379 61.376 61.3739 61.376 60.0632C61.376 58.7539 60.3093 57.6872 59 57.6872H49.648ZM59 63.1952H49.648C47.9213 63.1952 46.5146 61.7899 46.5146 60.0632C46.5146 58.3352 47.9213 56.9312 49.648 56.9312H59C60.728 56.9312 62.132 58.3352 62.132 60.0632C62.132 61.7899 60.728 63.1952 59 63.1952V63.1952Z" stroke="#E6E6E6" stroke-width="0.4" stroke-miterlimit="10"/>
<path d="M48.6234 66.3344C45.8301 66.3344 43.5568 68.6064 43.5568 71.4011C43.5568 74.1944 45.8301 76.4677 48.6234 76.4677H60.0248C62.8181 76.4677 65.0914 74.1944 65.0914 71.4011C65.0914 68.6064 62.8181 66.3344 60.0248 66.3344H48.6234ZM60.0248 77.2237H48.6234C45.4128 77.2237 42.8008 74.6117 42.8008 71.4011C42.8008 68.1904 45.4128 65.5784 48.6234 65.5784H60.0248C63.2354 65.5784 65.8474 68.1904 65.8474 71.4011C65.8474 74.6117 63.2354 77.2237 60.0248 77.2237" fill="#E6E6E6"/>
<path d="M48.6234 66.3344C45.8301 66.3344 43.5568 68.6064 43.5568 71.4011C43.5568 74.1944 45.8301 76.4677 48.6234 76.4677H60.0248C62.8181 76.4677 65.0914 74.1944 65.0914 71.4011C65.0914 68.6064 62.8181 66.3344 60.0248 66.3344H48.6234ZM60.0248 77.2237H48.6234C45.4128 77.2237 42.8008 74.6117 42.8008 71.4011C42.8008 68.1904 45.4128 65.5784 48.6234 65.5784H60.0248C63.2354 65.5784 65.8474 68.1904 65.8474 71.4011C65.8474 74.6117 63.2354 77.2237 60.0248 77.2237V77.2237Z" stroke="#E6E6E6" stroke-width="0.4" stroke-miterlimit="10"/>
<path d="M50.4748 65.5774H58.5575V63.1947H50.4748V65.5774ZM58.9361 66.3347H50.0961C49.8881 66.3347 49.7188 66.1653 49.7188 65.9573V62.8174C49.7188 62.608 49.8881 62.4387 50.0961 62.4387H58.9361C59.1454 62.4387 59.3148 62.608 59.3148 62.8174V65.9573C59.3148 66.1653 59.1454 66.3347 58.9361 66.3347Z" fill="#E6E6E6"/>
<path d="M50.4748 65.5774H58.5575V63.1947H50.4748V65.5774ZM58.9361 66.3347H50.0961C49.8881 66.3347 49.7188 66.1653 49.7188 65.9573V62.8174C49.7188 62.608 49.8881 62.4387 50.0961 62.4387H58.9361C59.1454 62.4387 59.3148 62.608 59.3148 62.8174V65.9573C59.3148 66.1653 59.1454 66.3347 58.9361 66.3347Z" stroke="#E6E6E6" stroke-width="0.4" stroke-miterlimit="10"/>
</svg>
