<svg width="86" height="81" viewBox="0 0 86 81" fill="none" xmlns="http://www.w3.org/2000/svg">
<path d="M2.29765 20.3071H16.6603C18.7497 20.3071 20.4483 18.6084 20.4483 16.5177V2.15508L2.29765 20.3071ZM16.6603 21.0631H1.38432C1.23099 21.0631 1.09365 20.9711 1.03499 20.8297C0.977654 20.6884 1.00832 20.5257 1.11632 20.4177L20.559 0.973745C20.667 0.867079 20.8297 0.835079 20.9723 0.892412C21.1123 0.949746 21.2057 1.08841 21.2057 1.24175V16.5177C21.2057 19.0244 19.1657 21.0631 16.6603 21.0631" fill="#E6E6E6"/>
<path d="M2.29765 20.3071H16.6603C18.7497 20.3071 20.4483 18.6084 20.4483 16.5177V2.15508L2.29765 20.3071ZM16.6603 21.0631H1.38432C1.23099 21.0631 1.09365 20.9711 1.03499 20.8297C0.977654 20.6884 1.00832 20.5257 1.11632 20.4177L20.559 0.973745C20.667 0.867079 20.8297 0.835079 20.9723 0.892412C21.1123 0.949746 21.2057 1.08841 21.2057 1.24175V16.5177C21.2057 19.0244 19.1657 21.0631 16.6603 21.0631V21.0631Z" stroke="#E6E6E6" stroke-width="0.4" stroke-miterlimit="10"/>
<path d="M57.0006 80.4451H7.53398C3.93398 80.4451 1.00598 77.5157 1.00598 73.9157V20.6851C1.00598 20.5837 1.04598 20.4877 1.11665 20.4171L20.5593 0.973073C20.6313 0.90374 20.726 0.862406 20.826 0.862406H57.0006C60.6006 0.862406 63.53 3.79307 63.53 7.39307V42.2437C63.53 42.4517 63.362 42.6211 63.1526 42.6211C62.9433 42.6211 62.774 42.4517 62.774 42.2437V7.39307C62.774 4.20907 60.1846 1.61974 57.0006 1.61974H20.9833L1.76198 20.8411V73.9157C1.76198 77.0984 4.35265 79.6891 7.53398 79.6891H57.0006C60.1846 79.6891 62.774 77.0984 62.774 73.9157V71.1917C62.774 70.9824 62.9433 70.8131 63.1526 70.8131C63.362 70.8131 63.53 70.9824 63.53 71.1917V73.9157C63.53 77.5157 60.6006 80.4451 57.0006 80.4451Z" fill="#E6E6E6"/>
<path d="M57.0006 80.4451H7.53398C3.93398 80.4451 1.00598 77.5157 1.00598 73.9157V20.6851C1.00598 20.5837 1.04598 20.4877 1.11665 20.4171L20.5593 0.973073C20.6313 0.90374 20.726 0.862406 20.826 0.862406H57.0006C60.6006 0.862406 63.53 3.79307 63.53 7.39307V42.2437C63.53 42.4517 63.362 42.6211 63.1526 42.6211C62.9433 42.6211 62.774 42.4517 62.774 42.2437V7.39307C62.774 4.20907 60.1846 1.61974 57.0006 1.61974H20.9833L1.76198 20.8411V73.9157C1.76198 77.0984 4.35265 79.6891 7.53398 79.6891H57.0006C60.1846 79.6891 62.774 77.0984 62.774 73.9157V71.1917C62.774 70.9824 62.9433 70.8131 63.1526 70.8131C63.362 70.8131 63.53 70.9824 63.53 71.1917V73.9157C63.53 77.5157 60.6006 80.4451 57.0006 80.4451Z" stroke="#E6E6E6" stroke-width="0.4" stroke-miterlimit="10"/>
<path d="M50.0881 16.8344H27.2868C27.0788 16.8344 26.9094 16.665 26.9094 16.457C26.9094 16.2477 27.0788 16.0784 27.2868 16.0784H50.0881C50.2961 16.0784 50.4654 16.2477 50.4654 16.457C50.4654 16.665 50.2961 16.8344 50.0881 16.8344Z" fill="#E6E6E6"/>
<path d="M50.0881 16.8344H27.2868C27.0788 16.8344 26.9094 16.665 26.9094 16.457C26.9094 16.2477 27.0788 16.0784 27.2868 16.0784H50.0881C50.2961 16.0784 50.4654 16.2477 50.4654 16.457C50.4654 16.665 50.2961 16.8344 50.0881 16.8344Z" stroke="#E6E6E6" stroke-width="0.4" stroke-miterlimit="10"/>
<path d="M50.088 29.324H14.944C14.7333 29.324 14.5653 29.1547 14.5653 28.9454C14.5653 28.7374 14.7333 28.568 14.944 28.568H50.088C50.296 28.568 50.4653 28.7374 50.4653 28.9454C50.4653 29.1547 50.296 29.324 50.088 29.324Z" fill="#E6E6E6"/>
<path d="M50.088 29.324H14.944C14.7333 29.324 14.5653 29.1547 14.5653 28.9454C14.5653 28.7374 14.7333 28.568 14.944 28.568H50.088C50.296 28.568 50.4653 28.7374 50.4653 28.9454C50.4653 29.1547 50.296 29.324 50.088 29.324Z" stroke="#E6E6E6" stroke-width="0.4" stroke-miterlimit="10"/>
<path d="M50.838 72.8006H50.8446H50.838ZM45.4166 67.2192L44.0273 73.8419L50.6486 72.4526L83.3353 39.7686C84.254 38.8472 84.3566 37.4512 83.5606 36.6566L81.2126 34.3086C80.4193 33.5139 79.0233 33.6126 78.1006 34.5339L45.4166 67.2192ZM43.5366 74.7099C43.438 74.7099 43.342 74.6699 43.27 74.5992C43.1806 74.5086 43.142 74.3792 43.1673 74.2539L44.6993 66.9539C44.714 66.8832 44.7513 66.8166 44.802 66.7646L77.5673 33.9979C78.782 32.7846 80.6566 32.6832 81.7473 33.7726L84.0953 36.1219C85.186 37.2126 85.0846 39.0872 83.87 40.3019L51.1046 73.0672C51.0526 73.1192 50.986 73.1552 50.9153 73.1699L43.6153 74.7019C43.5886 74.7072 43.5633 74.7099 43.5366 74.7099V74.7099Z" stroke="#E6E6E6" stroke-width="0.4" stroke-miterlimit="10"/>
<path d="M50.838 72.8006H50.8446H50.838ZM45.4166 67.2192L44.0273 73.8419L50.6486 72.4526L83.3353 39.7686C84.254 38.8472 84.3566 37.4512 83.5606 36.6566L81.2126 34.3086C80.4193 33.5139 79.0233 33.6126 78.1006 34.5339L45.4166 67.2192ZM43.5366 74.7099C43.438 74.7099 43.342 74.6699 43.27 74.5992C43.1806 74.5086 43.142 74.3792 43.1673 74.2539L44.6993 66.9539C44.714 66.8832 44.7513 66.8166 44.802 66.7646L77.5673 33.9979C78.782 32.7846 80.6566 32.6832 81.7473 33.7726L84.0953 36.1219C85.186 37.2126 85.0846 39.0872 83.87 40.3019L51.1046 73.0672C51.0526 73.1192 50.986 73.1552 50.9153 73.1699L43.6153 74.7019C43.5886 74.7072 43.5633 74.7099 43.5366 74.7099" fill="#E6E6E6"/>
<path d="M50.088 52.7407H14.944C14.7333 52.7407 14.5653 52.5713 14.5653 52.362C14.5653 52.154 14.7333 51.9847 14.944 51.9847H50.088C50.296 51.9847 50.4653 52.154 50.4653 52.362C50.4653 52.5713 50.296 52.7407 50.088 52.7407Z" stroke="#E6E6E6" stroke-width="0.4" stroke-miterlimit="10"/>
<path d="M50.088 52.7407H14.944C14.7333 52.7407 14.5653 52.5713 14.5653 52.362C14.5653 52.154 14.7333 51.9847 14.944 51.9847H50.088C50.296 51.9847 50.4653 52.154 50.4653 52.362C50.4653 52.5713 50.296 52.7407 50.088 52.7407Z" fill="#E6E6E6"/>
<path d="M50.088 41.0323H14.944C14.7333 41.0323 14.5653 40.8629 14.5653 40.6536C14.5653 40.4456 14.7333 40.2763 14.944 40.2763H50.088C50.296 40.2763 50.4653 40.4456 50.4653 40.6536C50.4653 40.8629 50.296 41.0323 50.088 41.0323Z" stroke="#E6E6E6" stroke-width="0.4" stroke-miterlimit="10"/>
<path d="M50.088 41.0323H14.944C14.7333 41.0323 14.5653 40.8629 14.5653 40.6536C14.5653 40.4456 14.7333 40.2763 14.944 40.2763H50.088C50.296 40.2763 50.4653 40.4456 50.4653 40.6536C50.4653 40.8629 50.296 41.0323 50.088 41.0323Z" fill="#E6E6E6"/>
</svg>
