<svg width="65" height="77" viewBox="0 0 65 77" fill="none" xmlns="http://www.w3.org/2000/svg">
<path d="M21.8014 15.8408V20.5555L24.264 18.5515H25.784L26.376 21.3808L27.716 23.3022L28.5947 23.9115L29.1334 20.3128L31.036 18.1155L31.7067 17.8715L31.34 20.4328L32.056 22.0528L32.0787 23.6075L35.8774 20.3728L38.5094 19.8755H40.9187L42.2614 20.4942C42.2614 20.4942 46.54 26.4542 43.5147 32.9915C40.492 39.5288 36.16 43.1968 28.4734 42.3688C20.7854 41.5422 16.272 36.5968 15.54 29.0648C14.808 21.5328 21.8014 15.8408 21.8014 15.8408Z" fill="#E6E6E6"/>
<path d="M21.8014 15.8408V20.5555L24.264 18.5515H25.784L26.376 21.3808L27.716 23.3022L28.5947 23.9115L29.1334 20.3128L31.036 18.1155L31.7067 17.8715L31.34 20.4328L32.056 22.0528L32.0787 23.6075L35.8774 20.3728L38.5094 19.8755H40.9187L42.2614 20.4942C42.2614 20.4942 46.54 26.4542 43.5147 32.9915C40.492 39.5288 36.16 43.1968 28.4734 42.3688C20.7854 41.5422 16.272 36.5968 15.54 29.0648C14.808 21.5328 21.8014 15.8408 21.8014 15.8408Z" stroke="#E6E6E6" stroke-width="0.4" stroke-miterlimit="10"/>
<path d="M44.5178 29.0232H44.5258H44.5178ZM29.9792 14.0366C26.4965 14.0366 23.1792 15.2979 20.5618 17.6366C17.7405 20.1579 16.0685 23.6246 15.8552 27.4032C15.6418 31.1806 16.9125 34.8152 19.4325 37.6379C21.9525 40.4592 25.4218 42.1312 29.1992 42.3446C36.9965 42.8006 43.6992 36.8006 44.1405 29.0006C44.3538 25.2232 43.0845 21.5886 40.5632 18.7672C38.0432 15.9446 34.5738 14.2726 30.7965 14.0592C30.5232 14.0446 30.2498 14.0366 29.9792 14.0366M30.0072 43.1232C29.7232 43.1232 29.4405 43.1152 29.1565 43.1006C25.1765 42.8752 21.5232 41.1139 18.8685 38.1419C16.2125 35.1672 14.8752 31.3392 15.1005 27.3606C15.3245 23.3819 17.0858 19.7272 20.0578 17.0726C23.0312 14.4166 26.8632 13.0819 30.8392 13.3046C34.8192 13.5286 38.4725 15.2899 41.1272 18.2632C43.7818 21.2352 45.1205 25.0646 44.8952 29.0446C44.4472 36.9739 37.8512 43.1232 30.0072 43.1232" fill="#E6E6E6"/>
<path d="M44.5178 29.0232H44.5258H44.5178ZM29.9792 14.0366C26.4965 14.0366 23.1792 15.2979 20.5618 17.6366C17.7405 20.1579 16.0685 23.6246 15.8552 27.4032C15.6418 31.1806 16.9125 34.8152 19.4325 37.6379C21.9525 40.4592 25.4218 42.1312 29.1992 42.3446C36.9965 42.8006 43.6992 36.8006 44.1405 29.0006C44.3538 25.2232 43.0845 21.5886 40.5632 18.7672C38.0432 15.9446 34.5738 14.2726 30.7965 14.0592C30.5232 14.0446 30.2498 14.0366 29.9792 14.0366V14.0366ZM30.0072 43.1232C29.7232 43.1232 29.4405 43.1152 29.1565 43.1006C25.1765 42.8752 21.5232 41.1139 18.8685 38.1419C16.2125 35.1672 14.8752 31.3392 15.1005 27.3606C15.3245 23.3819 17.0858 19.7272 20.0578 17.0726C23.0312 14.4166 26.8632 13.0819 30.8392 13.3046C34.8192 13.5286 38.4725 15.2899 41.1272 18.2632C43.7818 21.2352 45.1205 25.0646 44.8952 29.0446C44.4472 36.9739 37.8512 43.1232 30.0072 43.1232V43.1232Z" stroke="#E6E6E6" stroke-width="0.4" stroke-miterlimit="10"/>
<path d="M26.0931 30.6195H26.0705C25.8638 30.6075 25.7038 30.4288 25.7158 30.2208C25.7438 29.7195 25.5745 29.2382 25.2398 28.8635C24.9051 28.4888 24.4465 28.2662 23.9465 28.2382C22.9278 28.1702 22.0211 28.9755 21.9625 30.0088C21.9518 30.2155 21.7905 30.4035 21.5651 30.3648C21.3558 30.3528 21.1971 30.1742 21.2091 29.9662C21.2891 28.5155 22.5198 27.3835 23.9878 27.4835C24.6905 27.5235 25.3371 27.8342 25.8051 28.3595C26.2745 28.8848 26.5091 29.5608 26.4705 30.2622C26.4585 30.4648 26.2918 30.6195 26.0931 30.6195Z" fill="#35281E"/>
<path d="M26.0931 30.6195H26.0705C25.8638 30.6075 25.7038 30.4288 25.7158 30.2208C25.7438 29.7195 25.5745 29.2382 25.2398 28.8635C24.9051 28.4888 24.4465 28.2662 23.9465 28.2382C22.9278 28.1702 22.0211 28.9755 21.9625 30.0088C21.9518 30.2155 21.7905 30.4035 21.5651 30.3648C21.3558 30.3528 21.1971 30.1742 21.2091 29.9662C21.2891 28.5155 22.5198 27.3835 23.9878 27.4835C24.6905 27.5235 25.3371 27.8342 25.8051 28.3595C26.2745 28.8848 26.5091 29.5608 26.4705 30.2622C26.4585 30.4648 26.2918 30.6195 26.0931 30.6195Z" stroke="#35281E" stroke-width="0.666667" stroke-miterlimit="10"/>
<path d="M38.1283 31.3005C38.1216 31.3005 38.1136 31.3005 38.107 31.2992C37.899 31.2872 37.739 31.1085 37.751 30.9005C37.779 30.3992 37.611 29.9179 37.2763 29.5432C36.9416 29.1685 36.4816 28.9459 35.9816 28.9192C34.9523 28.8525 34.0563 29.6552 33.999 30.6885C33.9883 30.8965 33.8323 31.0672 33.6003 31.0459C33.3923 31.0339 33.2323 30.8539 33.2443 30.6459C33.3243 29.1952 34.5616 28.0685 36.0243 28.1632C37.475 28.2459 38.5883 29.4925 38.5056 30.9432C38.4936 31.1445 38.327 31.3005 38.1283 31.3005Z" fill="#35281E"/>
<path d="M38.1283 31.3005C38.1216 31.3005 38.1136 31.3005 38.107 31.2992C37.899 31.2872 37.739 31.1085 37.751 30.9005C37.779 30.3992 37.611 29.9179 37.2763 29.5432C36.9416 29.1685 36.4816 28.9459 35.9816 28.9192C34.9523 28.8525 34.0563 29.6552 33.999 30.6885C33.9883 30.8965 33.8323 31.0672 33.6003 31.0459C33.3923 31.0339 33.2323 30.8539 33.2443 30.6459C33.3243 29.1952 34.5616 28.0685 36.0243 28.1632C37.475 28.2459 38.5883 29.4925 38.5056 30.9432C38.4936 31.1445 38.327 31.3005 38.1283 31.3005Z" stroke="#35281E" stroke-width="0.666667" stroke-miterlimit="10"/>
<path d="M29.7262 38.9503C29.6155 38.9503 29.5035 38.9477 29.3915 38.9397C28.0608 38.8663 26.8328 38.349 25.9315 37.4863C25.0168 36.6077 24.5488 35.4783 24.6155 34.305C24.6275 34.097 24.7902 33.929 25.0142 33.949C25.2222 33.961 25.3822 34.1397 25.3702 34.3477C25.3168 35.297 25.7022 36.217 26.4555 36.941C27.2248 37.6783 28.2835 38.121 29.4342 38.1863C30.5835 38.2517 31.6848 37.9303 32.5315 37.2837C33.3635 36.6503 33.8502 35.7797 33.9048 34.829C33.9168 34.6223 34.0848 34.4557 34.3035 34.4743C34.5115 34.485 34.6702 34.6637 34.6582 34.8717C34.5915 36.0463 33.9995 37.117 32.9902 37.885C32.0848 38.5783 30.9355 38.9503 29.7262 38.9503Z" fill="#35281E"/>
<path d="M29.7262 38.9503C29.6155 38.9503 29.5035 38.9477 29.3915 38.9397C28.0608 38.8663 26.8328 38.349 25.9315 37.4863C25.0168 36.6077 24.5488 35.4783 24.6155 34.305C24.6275 34.097 24.7902 33.929 25.0142 33.949C25.2222 33.961 25.3822 34.1397 25.3702 34.3477C25.3168 35.297 25.7022 36.217 26.4555 36.941C27.2248 37.6783 28.2835 38.121 29.4342 38.1863C30.5835 38.2517 31.6848 37.9303 32.5315 37.2837C33.3635 36.6503 33.8502 35.7797 33.9048 34.829C33.9168 34.6223 34.0848 34.4557 34.3035 34.4743C34.5115 34.485 34.6702 34.6637 34.6582 34.8717C34.5915 36.0463 33.9995 37.117 32.9902 37.885C32.0848 38.5783 30.9355 38.9503 29.7262 38.9503Z" stroke="#35281E" stroke-width="0.666667" stroke-miterlimit="10"/>
<path d="M43.5984 33.7394C43.4251 33.7394 43.2691 33.6194 43.2291 33.4434C43.1838 33.2394 43.3118 33.038 43.5158 32.9914C45.1064 32.6367 47.0971 31.038 46.7278 29.2447C46.6358 28.802 46.4438 28.4967 46.1384 28.3154C45.5291 27.946 44.6518 28.1874 44.6411 28.19C44.4371 28.246 44.2318 28.1327 44.1731 27.9327C44.1144 27.7314 44.2304 27.522 44.4304 27.4634C44.4784 27.4487 45.6278 27.1247 46.5278 27.666C47.0171 27.9607 47.3344 28.4394 47.4664 29.0927C47.9078 31.2274 45.8264 33.25 43.6811 33.73C43.6531 33.7354 43.6264 33.7394 43.5984 33.7394Z" fill="#E6E6E6"/>
<path d="M43.5984 33.7394C43.4251 33.7394 43.2691 33.6194 43.2291 33.4434C43.1838 33.2394 43.3118 33.038 43.5158 32.9914C45.1064 32.6367 47.0971 31.038 46.7278 29.2447C46.6358 28.802 46.4438 28.4967 46.1384 28.3154C45.5291 27.946 44.6518 28.1874 44.6411 28.19C44.4371 28.246 44.2318 28.1327 44.1731 27.9327C44.1144 27.7314 44.2304 27.522 44.4304 27.4634C44.4784 27.4487 45.6278 27.1247 46.5278 27.666C47.0171 27.9607 47.3344 28.4394 47.4664 29.0927C47.9078 31.2274 45.8264 33.25 43.6811 33.73C43.6531 33.7354 43.6264 33.7394 43.5984 33.7394Z" stroke="#E6E6E6" stroke-width="0.4" stroke-miterlimit="10"/>
<path d="M15.8834 32.173C15.842 32.173 15.8007 32.1663 15.7594 32.1516C13.6834 31.433 11.842 29.189 12.5207 27.117C12.7274 26.485 13.0954 26.0436 13.614 25.8076C14.57 25.369 15.6754 25.821 15.722 25.841C15.9127 25.9223 16.0047 26.1423 15.9234 26.3343C15.846 26.5276 15.626 26.6196 15.43 26.5383C15.422 26.5356 14.578 26.197 13.9247 26.4956C13.6034 26.645 13.378 26.9236 13.2394 27.353C12.6687 29.0916 14.4674 30.905 16.0074 31.437C16.2047 31.5063 16.3087 31.721 16.242 31.9196C16.1874 32.0756 16.0394 32.173 15.8834 32.173Z" fill="#E6E6E6"/>
<path d="M15.8834 32.173C15.842 32.173 15.8007 32.1663 15.7594 32.1516C13.6834 31.433 11.842 29.189 12.5207 27.117C12.7274 26.485 13.0954 26.0436 13.614 25.8076C14.57 25.369 15.6754 25.821 15.722 25.841C15.9127 25.9223 16.0047 26.1423 15.9234 26.3343C15.846 26.5276 15.626 26.6196 15.43 26.5383C15.422 26.5356 14.578 26.197 13.9247 26.4956C13.6034 26.645 13.378 26.9236 13.2394 27.353C12.6687 29.0916 14.4674 30.905 16.0074 31.437C16.2047 31.5063 16.3087 31.721 16.242 31.9196C16.1874 32.0756 16.0394 32.173 15.8834 32.173Z" stroke="#E6E6E6" stroke-width="0.4" stroke-miterlimit="10"/>
<path d="M28.9044 24.3956C28.863 24.3956 28.8204 24.3876 28.779 24.3743C25.1697 23.1036 25.2204 20.165 25.4097 18.961C24.607 19.0703 23.0284 19.4956 22.5777 21.169C22.535 21.3263 22.3964 21.4396 22.2337 21.4476C22.047 21.4636 21.9204 21.361 21.8617 21.209C21.8217 21.1103 20.911 18.7476 21.8017 15.841C21.863 15.641 22.0724 15.529 22.2737 15.5903C22.4737 15.6503 22.5857 15.8636 22.5244 16.0623C22.0444 17.629 22.1444 19.041 22.307 19.9356C23.4724 18.1636 25.899 18.1356 25.8857 18.1676C26.0057 18.169 26.119 18.2276 26.1897 18.3236C26.2604 18.421 26.2804 18.545 26.2444 18.6596C26.2017 18.7996 25.275 21.8996 28.3977 23.3996C28.2057 21.9783 28.255 18.8343 31.9537 17.2236C32.1017 17.157 32.2764 17.1983 32.3844 17.317C32.4937 17.4396 32.5137 17.617 32.4323 17.757C32.3643 17.8783 30.859 20.593 32.5724 23.005C33.5844 21.5476 37.1257 17.3196 42.4977 20.145C42.683 20.2423 42.755 20.4716 42.6563 20.6543C42.5603 20.841 42.331 20.9116 42.147 20.813C36.4137 17.8036 33.0723 23.5903 32.9323 23.837C32.8737 23.9436 32.7657 24.0156 32.643 24.029C32.5243 24.045 32.4003 23.993 32.3203 23.9023C30.5884 21.9343 30.9404 19.6636 31.3563 18.3876C28.2137 20.3583 29.2177 23.7503 29.2657 23.905C29.3084 24.041 29.2697 24.1903 29.167 24.289C29.0964 24.3596 29.0004 24.3956 28.9044 24.3956Z" fill="#E6E6E6"/>
<path d="M28.9044 24.3956C28.863 24.3956 28.8204 24.3876 28.779 24.3743C25.1697 23.1036 25.2204 20.165 25.4097 18.961C24.607 19.0703 23.0284 19.4956 22.5777 21.169C22.535 21.3263 22.3964 21.4396 22.2337 21.4476C22.047 21.4636 21.9204 21.361 21.8617 21.209C21.8217 21.1103 20.911 18.7476 21.8017 15.841C21.863 15.641 22.0724 15.529 22.2737 15.5903C22.4737 15.6503 22.5857 15.8636 22.5244 16.0623C22.0444 17.629 22.1444 19.041 22.307 19.9356C23.4724 18.1636 25.899 18.1356 25.8857 18.1676C26.0057 18.169 26.119 18.2276 26.1897 18.3236C26.2604 18.421 26.2804 18.545 26.2444 18.6596C26.2017 18.7996 25.275 21.8996 28.3977 23.3996C28.2057 21.9783 28.255 18.8343 31.9537 17.2236C32.1017 17.157 32.2764 17.1983 32.3844 17.317C32.4937 17.4396 32.5137 17.617 32.4323 17.757C32.3643 17.8783 30.859 20.593 32.5724 23.005C33.5844 21.5476 37.1257 17.3196 42.4977 20.145C42.683 20.2423 42.755 20.4716 42.6563 20.6543C42.5603 20.841 42.331 20.9116 42.147 20.813C36.4137 17.8036 33.0723 23.5903 32.9323 23.837C32.8737 23.9436 32.7657 24.0156 32.643 24.029C32.5243 24.045 32.4003 23.993 32.3203 23.9023C30.5884 21.9343 30.9404 19.6636 31.3563 18.3876C28.2137 20.3583 29.2177 23.7503 29.2657 23.905C29.3084 24.041 29.2697 24.1903 29.167 24.289C29.0964 24.3596 29.0004 24.3956 28.9044 24.3956Z" stroke="#E6E6E6" stroke-width="0.4" stroke-miterlimit="10"/>
<path d="M29.269 13.9724C29.2104 13.9724 29.153 13.9591 29.097 13.9324C24.489 11.5924 26.0277 7.95241 26.0437 7.91775C26.1304 7.72441 26.3517 7.63908 26.5424 7.72308C26.7344 7.80708 26.8197 8.02975 26.737 8.22175C26.6797 8.35241 25.493 11.2537 29.4397 13.2564C29.6264 13.3511 29.6997 13.5791 29.6064 13.7657C29.5384 13.8964 29.4064 13.9724 29.269 13.9724Z" fill="#E6E6E6"/>
<path d="M29.269 13.9724C29.2104 13.9724 29.153 13.9591 29.097 13.9324C24.489 11.5924 26.0277 7.95241 26.0437 7.91775C26.1304 7.72441 26.3517 7.63908 26.5424 7.72308C26.7344 7.80708 26.8197 8.02975 26.737 8.22175C26.6797 8.35241 25.493 11.2537 29.4397 13.2564C29.6264 13.3511 29.6997 13.5791 29.6064 13.7657C29.5384 13.8964 29.4064 13.9724 29.269 13.9724Z" stroke="#E6E6E6" stroke-width="0.4" stroke-miterlimit="10"/>
<path d="M30.3707 14.0427C30.248 14.0427 30.1267 13.9814 30.0547 13.8707C28.0667 10.8281 29.9107 9.28139 29.9307 9.26539C30.0934 9.13339 30.332 9.15873 30.4614 9.32139C30.592 9.48273 30.568 9.72006 30.408 9.85072C30.3467 9.90406 29.0934 11.0161 30.688 13.4574C30.8014 13.6321 30.7534 13.8667 30.5774 13.9814C30.5134 14.0214 30.4427 14.0427 30.3707 14.0427Z" fill="#E6E6E6"/>
<path d="M30.3707 14.0427C30.248 14.0427 30.1267 13.9814 30.0547 13.8707C28.0667 10.8281 29.9107 9.28139 29.9307 9.26539C30.0934 9.13339 30.332 9.15873 30.4614 9.32139C30.592 9.48273 30.568 9.72006 30.408 9.85072C30.3467 9.90406 29.0934 11.0161 30.688 13.4574C30.8014 13.6321 30.7534 13.8667 30.5774 13.9814C30.5134 14.0214 30.4427 14.0427 30.3707 14.0427Z" stroke="#E6E6E6" stroke-width="0.4" stroke-miterlimit="10"/>
<path d="M7.05403 1.95417C3.87403 1.95417 1.28736 4.54083 1.28736 7.72083V69.5075C1.28736 72.6875 3.87403 75.2742 7.05403 75.2742H51.2847C54.4647 75.2742 57.0514 72.6875 57.0514 69.5075V7.72083C57.0514 4.54083 54.4647 1.95417 51.2847 1.95417H7.05403ZM51.2847 76.0315H7.05403C3.45803 76.0315 0.530029 73.1048 0.530029 69.5075V7.72083C0.530029 4.1235 3.45803 1.19817 7.05403 1.19817H51.2847C54.8807 1.19817 57.806 4.1235 57.806 7.72083V69.5075C57.806 73.1048 54.8807 76.0315 51.2847 76.0315Z" fill="#E6E6E6"/>
<path d="M7.05403 1.95417C3.87403 1.95417 1.28736 4.54083 1.28736 7.72083V69.5075C1.28736 72.6875 3.87403 75.2742 7.05403 75.2742H51.2847C54.4647 75.2742 57.0514 72.6875 57.0514 69.5075V7.72083C57.0514 4.54083 54.4647 1.95417 51.2847 1.95417H7.05403ZM51.2847 76.0315H7.05403C3.45803 76.0315 0.530029 73.1048 0.530029 69.5075V7.72083C0.530029 4.1235 3.45803 1.19817 7.05403 1.19817H51.2847C54.8807 1.19817 57.806 4.1235 57.806 7.72083V69.5075C57.806 73.1048 54.8807 76.0315 51.2847 76.0315Z" stroke="#E6E6E6" stroke-width="0.4" stroke-miterlimit="10"/>
<path d="M57.8069 18.5517H58.9882C61.5282 18.5517 63.5949 16.4851 63.5949 13.9464V10.6131C63.5949 9.61174 62.7789 8.79707 61.7776 8.79707H57.8069V18.5517ZM58.9882 19.3077H57.4296C57.2216 19.3077 57.0522 19.1384 57.0522 18.9304V8.41707C57.0522 8.20907 57.2216 8.03974 57.4296 8.03974H61.7776C63.1962 8.03974 64.3496 9.19307 64.3496 10.6131V13.9464C64.3496 16.9037 61.9456 19.3077 58.9882 19.3077" fill="#E6E6E6"/>
<path d="M57.8069 18.5517H58.9882C61.5282 18.5517 63.5949 16.4851 63.5949 13.9464V10.6131C63.5949 9.61174 62.7789 8.79707 61.7776 8.79707H57.8069V18.5517ZM58.9882 19.3077H57.4296C57.2216 19.3077 57.0522 19.1384 57.0522 18.9304V8.41707C57.0522 8.20907 57.2216 8.03974 57.4296 8.03974H61.7776C63.1962 8.03974 64.3496 9.19307 64.3496 10.6131V13.9464C64.3496 16.9037 61.9456 19.3077 58.9882 19.3077V19.3077Z" stroke="#E6E6E6" stroke-width="0.4" stroke-miterlimit="10"/>
<path d="M57.8069 29.0648H58.9882C61.5282 29.0648 63.5949 26.9981 63.5949 24.4595V21.1261C63.5949 20.1235 62.7789 19.3088 61.7776 19.3088H57.8069V29.0648ZM58.9882 29.8208H57.4296C57.2216 29.8208 57.0522 29.6515 57.0522 29.4421V18.9301C57.0522 18.7208 57.2216 18.5515 57.4296 18.5515H61.7776C63.1962 18.5515 64.3496 19.7061 64.3496 21.1261V24.4595C64.3496 27.4168 61.9456 29.8208 58.9882 29.8208" fill="#E6E6E6"/>
<path d="M57.8069 29.0648H58.9882C61.5282 29.0648 63.5949 26.9981 63.5949 24.4595V21.1261C63.5949 20.1235 62.7789 19.3088 61.7776 19.3088H57.8069V29.0648ZM58.9882 29.8208H57.4296C57.2216 29.8208 57.0522 29.6515 57.0522 29.4421V18.9301C57.0522 18.7208 57.2216 18.5515 57.4296 18.5515H61.7776C63.1962 18.5515 64.3496 19.7061 64.3496 21.1261V24.4595C64.3496 27.4168 61.9456 29.8208 58.9882 29.8208V29.8208Z" stroke="#E6E6E6" stroke-width="0.4" stroke-miterlimit="10"/>
<path d="M57.8069 39.5765H58.9882C61.5282 39.5765 63.5949 37.5099 63.5949 34.9712V31.6379C63.5949 30.6365 62.7789 29.8219 61.7776 29.8219H57.8069V39.5765ZM58.9882 40.3325H57.4296C57.2216 40.3325 57.0522 40.1632 57.0522 39.9552V29.4419C57.0522 29.2339 57.2216 29.0645 57.4296 29.0645H61.7776C63.1962 29.0645 64.3496 30.2179 64.3496 31.6379V34.9712C64.3496 37.9285 61.9456 40.3325 58.9882 40.3325" fill="#E6E6E6"/>
<path d="M57.8069 39.5765H58.9882C61.5282 39.5765 63.5949 37.5099 63.5949 34.9712V31.6379C63.5949 30.6365 62.7789 29.8219 61.7776 29.8219H57.8069V39.5765ZM58.9882 40.3325H57.4296C57.2216 40.3325 57.0522 40.1632 57.0522 39.9552V29.4419C57.0522 29.2339 57.2216 29.0645 57.4296 29.0645H61.7776C63.1962 29.0645 64.3496 30.2179 64.3496 31.6379V34.9712C64.3496 37.9285 61.9456 40.3325 58.9882 40.3325V40.3325Z" stroke="#E6E6E6" stroke-width="0.4" stroke-miterlimit="10"/>
<path d="M39.98 56.8317H20.252C20.0426 56.8317 19.8733 56.6624 19.8733 56.4544C19.8733 56.2451 20.0426 56.0757 20.252 56.0757H39.98C40.188 56.0757 40.3573 56.2451 40.3573 56.4544C40.3573 56.6624 40.188 56.8317 39.98 56.8317Z" fill="#E6E6E6"/>
<path d="M39.98 56.8317H20.252C20.0426 56.8317 19.8733 56.6624 19.8733 56.4544C19.8733 56.2451 20.0426 56.0757 20.252 56.0757H39.98C40.188 56.0757 40.3573 56.2451 40.3573 56.4544C40.3573 56.6624 40.188 56.8317 39.98 56.8317Z" stroke="#E6E6E6" stroke-width="0.4" stroke-miterlimit="10"/>
<path d="M38.2131 62.0413H21.7971C21.5878 62.0413 21.4185 61.8733 21.4185 61.664C21.4185 61.4547 21.5878 61.2867 21.7971 61.2867H38.2131C38.4225 61.2867 38.5918 61.4547 38.5918 61.664C38.5918 61.8733 38.4225 62.0413 38.2131 62.0413Z" fill="#E6E6E6"/>
<path d="M38.2131 62.0413H21.7971C21.5878 62.0413 21.4185 61.8733 21.4185 61.664C21.4185 61.4547 21.5878 61.2867 21.7971 61.2867H38.2131C38.4225 61.2867 38.5918 61.4547 38.5918 61.664C38.5918 61.8733 38.4225 62.0413 38.2131 62.0413Z" stroke="#E6E6E6" stroke-width="0.4" stroke-miterlimit="10"/>
<path d="M16.2065 51.8956C15.5545 51.8956 15.0238 52.4263 15.0238 53.0783V65.0103C15.0238 65.6623 15.5545 66.1929 16.2065 66.1929H43.3158C43.9665 66.1929 44.4972 65.6623 44.4972 65.0103V53.0783C44.4972 52.4263 43.9665 51.8956 43.3158 51.8956H16.2065ZM43.3158 66.9476H16.2065C15.1372 66.9476 14.2678 66.0796 14.2678 65.0103V53.0783C14.2678 52.0103 15.1372 51.1409 16.2065 51.1409H43.3158C44.3838 51.1409 45.2532 52.0103 45.2532 53.0783V65.0103C45.2532 66.0796 44.3838 66.9476 43.3158 66.9476Z" fill="#E6E6E6"/>
<path d="M16.2065 51.8956C15.5545 51.8956 15.0238 52.4263 15.0238 53.0783V65.0103C15.0238 65.6623 15.5545 66.1929 16.2065 66.1929H43.3158C43.9665 66.1929 44.4972 65.6623 44.4972 65.0103V53.0783C44.4972 52.4263 43.9665 51.8956 43.3158 51.8956H16.2065ZM43.3158 66.9476H16.2065C15.1372 66.9476 14.2678 66.0796 14.2678 65.0103V53.0783C14.2678 52.0103 15.1372 51.1409 16.2065 51.1409H43.3158C44.3838 51.1409 45.2532 52.0103 45.2532 53.0783V65.0103C45.2532 66.0796 44.3838 66.9476 43.3158 66.9476Z" stroke="#E6E6E6" stroke-width="0.4" stroke-miterlimit="10"/>
</svg>
