<svg id="Layer_1" data-name="Layer 1" xmlns="http://www.w3.org/2000/svg" viewBox="0 0 64 64"><defs><style>.cls-1{fill:#fff;}</style></defs><title>Dash Baord</title><path class="cls-1" d="M47.2,11.94c-8.05,0-19.23,0-27.28,0-.71,0-1.8-.2-1.79.89s1.08.88,1.8.88c3.92,0,7.84,0,11.76,0H47.21c.69,0,1.59,0,1.6-.93S47.84,11.94,47.2,11.94Z"/><path class="cls-1" d="M49.58,16.74c-7.93,0-19,0-26.91,0a54.89,54.89,0,0,1-5.88-.33c-2-.23-2.7-1.72-2.76-3.45a3.46,3.46,0,0,1,2.72-3.75A11.46,11.46,0,0,1,19.68,9c7.51,0,18.14,0,25.65,0C47,9,48.56,9,50.18,9c1,0,2.43,0,2.41-1.35,0-1.21-1.34-1.2-2.32-1.23s-1.82.05-2.74.05c-8.49,0-20.11-.05-28.6,0-5.12,0-7.44,2.44-7.45,7.53V30.84c0,5.76-.05,11.51,0,17.27s3.35,9,9.09,9c8.56,0,20.25,0,28.81,0,3.17,0,3.49-.32,3.5-3.51,0-11.16,0-22.32,0-33.48C52.93,17.11,52.62,16.74,49.58,16.74ZM50.87,53.6a1.28,1.28,0,0,1-1.29,1.28H19.48a5.66,5.66,0,0,1-5.66-5.64V17.8a9.82,9.82,0,0,0,4.23,1.07H49.58a1.28,1.28,0,0,1,1.29,1.28Z"/></svg>