<svg id="Layer_1" data-name="Layer 1" xmlns="http://www.w3.org/2000/svg" viewBox="0 0 64 64"><defs><style>.cls-1{fill:#fff;}</style></defs><title>Dash Baord</title><path class="cls-1" d="M34.7,55a.71.71,0,0,0,.34,0c5,0,10,0,15,0,1,0,1.9,0,2.85,0a3.85,3.85,0,0,0,.83-.1,1.7,1.7,0,0,0,1.41-1.59,11.94,11.94,0,0,0,.06-1.69c-.07-6.64-.06-13.28-.06-19.91a1.12,1.12,0,0,1,1-1.19.56.56,0,0,1,.57.21,1.51,1.51,0,0,1,.36.94q0,8.34,0,16.68c0,1.84,0,3.67,0,5.51a7.13,7.13,0,0,1-.11,1.3,1.67,1.67,0,0,1-1.65,1.54,11.56,11.56,0,0,1-1.43.09H17.93c-4.27,0-8.55,0-12.82,0-.73,0-1.47,0-2.2,0a4.87,4.87,0,0,1-1.32-.16A2,2,0,0,1,.14,55.29,4.76,4.76,0,0,1,0,54C.06,43.7.05,33.41,0,23.12c0-1.11,0-2.23,0-3.35a3,3,0,0,1,.14-.89,1.65,1.65,0,0,1,1.67-1.3c.35,0,.69,0,1,0a1,1,0,0,0,1-1.07A6,6,0,0,1,4,15.39,1.93,1.93,0,0,1,5.63,13.8a15.73,15.73,0,0,1,2.83-.21,34.32,34.32,0,0,1,5.17.27A30.6,30.6,0,0,1,22,16.12a30,30,0,0,1,4.5,2.41,7,7,0,0,0,1.32.72A2.5,2.5,0,0,0,30,19c.87-.49,1.73-1,2.6-1.51a15.72,15.72,0,0,1,5.23-1.81l.54-.11a.94.94,0,0,1,1.17.63,1,1,0,0,1-.77,1.22c-.65.17-1.31.3-2,.45a12.55,12.55,0,0,0-3.2,1.23c-.9.49-1.8,1-2.68,1.49a2.82,2.82,0,0,0-1.46,2.64c0,3.22.06,6.44,0,9.66-.05,6.88,0,13.75,0,20.63v.14c0,.22.05.29.28.31a2.93,2.93,0,0,0,1.43-.27A62.37,62.37,0,0,1,41,50.48a50.07,50.07,0,0,1,5.29-.94c1.15-.14,2.31-.22,3.47-.32a1.31,1.31,0,0,0,1.3-1.35v-.22l.06-7.15q0-3.95.09-7.87a1.14,1.14,0,0,1,.67-1,.69.69,0,0,1,.77.12,1.46,1.46,0,0,1,.45,1.1c0,2.71-.07,5.42-.11,8.13,0,1.82,0,3.64-.09,5.46,0,.94,0,1.89-.12,2.84-.18,1.31-.75,1.65-1.93,1.8s-2.26.14-3.39.25a37.08,37.08,0,0,0-5.21.89A34.66,34.66,0,0,0,34.9,54.9ZM5.76,32.57h0V47.83a3.56,3.56,0,0,0,0,.65,1,1,0,0,0,.83.87,2.5,2.5,0,0,0,.55,0,32.38,32.38,0,0,1,3.94,0,30.81,30.81,0,0,1,4.57.72,53.47,53.47,0,0,1,7.09,2.23L26.94,54c.22.08.29,0,.34-.18a4.05,4.05,0,0,0,.17-1.15q0-11.13,0-22.27c0-.87,0-1.74,0-2.61,0-1.65,0-3.3,0-5a2.57,2.57,0,0,0-1.23-2.27,30.28,30.28,0,0,0-8.83-4,30.84,30.84,0,0,0-6-1,30.87,30.87,0,0,0-4.08,0,1.5,1.5,0,0,0-1.5,1.17,4,4,0,0,0-.07.91ZM22.63,55c0-.06-.08-.07-.13-.1a34.35,34.35,0,0,0-4.74-2.07A28.25,28.25,0,0,0,11,51.35a28.66,28.66,0,0,0-4-.07,8.91,8.91,0,0,1-1.71-.08,1.24,1.24,0,0,1-1.16-1.06,7.2,7.2,0,0,1-.14-1.67V21.73c0-.36,0-.72,0-1.08a.9.9,0,0,0-.52-.89,1.76,1.76,0,0,0-.75-.14.73.73,0,0,0-.76.8v.16q0,9.59,0,19.17c0,3,0,6,0,9,0,1.66,0,3.32,0,5A1.21,1.21,0,0,0,3,55a3.77,3.77,0,0,0,.67,0q9.35,0,18.71,0C22.46,55.05,22.55,55.08,22.63,55Z"/><path class="cls-1" d="M53.11,28.22A10.9,10.9,0,1,1,64,17.32,10.88,10.88,0,0,1,53.11,28.22Zm9-10.9a9,9,0,1,0-9,9A9,9,0,0,0,62.14,17.32Z"/><path class="cls-1" d="M54.49,20.31c0,.57,0,1.13,0,1.7a.91.91,0,0,1-.9.91.89.89,0,0,1-.94-.9c0-.79,0-1.58,0-2.37,0-.39,0-.77,0-1.15,0-.21-.07-.27-.28-.27H49a.92.92,0,1,1,0-1.84q1.72,0,3.45,0c.23,0,.29-.07.29-.3,0-1.1,0-2.2,0-3.3a.9.9,0,0,1,1-1,.84.84,0,0,1,.82.85V16c0,.36,0,.36.36.36,1.09,0,2.18,0,3.28,0a.92.92,0,0,1,.65,1.6.86.86,0,0,1-.65.24h-3.3c-.33,0-.34,0-.34.33v1.75Z"/></svg>