<svg width="56" height="44" viewBox="0 0 56 44" fill="none" xmlns="http://www.w3.org/2000/svg">
<path d="M23.2276 40.5422C23.2262 40.7542 23.1262 40.9662 23.0329 41.3356C21.1382 40.6169 19.3062 39.8769 17.4422 39.2236C13.9342 37.9916 10.3289 37.2089 6.59425 37.4169C5.36625 37.4849 5.18625 37.0142 5.18891 35.9889C5.21158 27.6036 5.22358 19.2182 5.17558 10.8329C5.16891 9.59425 5.68358 9.22225 6.78491 9.18491C12.4049 8.99558 17.5969 10.3129 22.2996 13.4622C23.0262 13.9502 23.2689 14.5396 23.2662 15.3876C23.2396 23.7729 23.2422 32.1569 23.2276 40.5422ZM3.43291 42.1662C2.35025 42.1742 1.94491 41.8196 1.94758 40.7116C1.97691 31.7902 1.95958 22.8662 1.97158 13.9449C1.97158 13.3822 1.78758 12.5862 2.79291 12.6742C3.85425 12.7662 3.60891 13.6316 3.61158 14.2636C3.62891 21.4169 3.62091 28.5702 3.62491 35.7249C3.62758 39.0916 3.63291 39.1049 6.89958 39.0129C11.2809 38.8862 15.3662 40.0622 19.2969 42.1489C14.0089 42.1489 8.72091 42.1276 3.43291 42.1662M47.9489 22.6716C47.9489 22.6716 47.9596 22.6209 47.9662 22.5462V22.3489C47.9436 22.0689 47.8049 21.6956 47.2356 21.6276C46.3036 21.5182 46.3582 22.9449 46.3582 22.9449L46.3089 23.0662C46.2982 29.3996 46.2836 33.5849 46.3622 39.9182C46.3836 41.8009 45.7756 42.2316 44.0102 42.1902C39.1102 42.0796 34.2049 42.1516 29.3036 42.1516C33.1102 40.1916 37.0942 39.1876 41.2609 38.9782C44.2969 38.8249 44.4342 38.6716 44.4782 35.5556C44.5409 31.1502 44.6116 28.8329 44.6796 24.4276L44.6569 24.4196C44.6569 24.4196 44.4929 23.4329 43.8342 23.4876C43.3249 23.5302 43.1129 24.0609 43.0422 24.3009C43.0009 28.7009 42.9662 31.0129 42.9236 35.4129C42.9156 36.3276 43.0489 37.2329 41.6102 37.3102C36.1036 37.6102 30.8742 39.0956 25.8062 41.2036C25.6142 41.2836 25.3622 41.2142 24.9302 41.2142V25.7836C24.9302 22.4782 24.9836 19.1729 24.9036 15.8689C24.8729 14.6382 25.2489 13.8969 26.3436 13.2969C29.2662 11.6956 30.8489 10.8542 34.0196 10.2356C34.1302 10.1996 34.6529 10.0022 34.6529 9.36358C34.6529 8.76091 34.0702 8.63024 33.8889 8.60358C30.4889 9.22491 28.6809 10.1129 25.5996 11.9356C24.5276 12.5702 23.8249 12.5929 22.7516 11.8769C17.7836 8.56491 12.2449 7.31425 6.31025 7.61158C4.77025 7.68758 3.50891 7.91958 3.62091 9.88491C3.66491 10.6889 3.21158 10.9742 2.46091 10.9089C0.552914 10.7462 0.38758 11.9676 0.390246 13.4276C0.408913 22.6569 0.443581 31.8862 0.364914 41.1156C0.347581 43.1662 1.10491 43.7636 3.07958 43.7382C10.0782 43.6489 17.0782 43.7036 24.0769 43.7049C30.9982 43.7062 37.9209 43.7116 44.8436 43.7036C47.6409 43.7009 47.9529 43.4196 47.9582 40.7196C47.9702 33.9876 47.9649 29.4036 47.9662 22.6716H47.9489Z" fill="white"/>
<path d="M48.4932 16.1892C48.5279 16.4959 48.5625 16.7879 48.4159 16.9319C48.2639 17.0812 47.9559 17.1359 47.6572 17.1879C47.4999 17.2159 47.3439 17.2426 47.1985 17.2839C43.6559 18.2719 40.1732 19.4626 37.2185 20.5052L40.5079 17.1146C41.3625 16.2319 42.2185 15.3479 43.0599 14.4506C43.2332 14.2666 43.3545 14.1972 43.5145 14.1932C43.5839 14.1919 43.6639 14.2039 43.7559 14.2279C43.9225 14.2732 44.0945 14.2932 44.2665 14.2892C44.9425 14.2759 45.5785 13.8839 45.9279 13.2639C46.3519 12.5119 46.2439 11.5399 45.6692 10.8959C45.2799 10.4612 44.7132 10.2172 44.1159 10.2292C43.8439 10.2332 43.5825 10.2919 43.3385 10.4012C42.5465 10.7572 41.8839 11.6599 42.1932 12.5012C42.4265 13.1346 42.1465 13.4106 41.7585 13.7946L41.5839 13.9679L36.2452 19.5186L36.5945 18.3679C37.6079 15.0519 38.5772 11.7972 39.2852 8.42924C39.3292 8.21324 39.3772 8.17057 39.6025 8.16657L39.8079 8.1639C41.1919 8.13857 42.4345 7.9759 43.6052 7.6679C45.0919 7.27724 46.3665 6.58257 47.3985 5.5999C47.4932 5.50657 47.5265 5.49724 47.5292 5.4959C47.5305 5.4959 47.5639 5.5039 47.6465 5.58657C48.6279 6.55324 49.6225 7.5039 50.6185 8.45457L50.7572 8.5879C50.8292 8.65457 50.8505 8.68257 50.7972 8.75324C48.8825 10.8759 48.5412 13.4492 48.4599 15.6879C48.4545 15.8466 48.4719 16.0172 48.4932 16.1892ZM44.1452 11.4186L44.1612 11.6372C44.3265 11.6386 44.4905 11.7079 44.6119 11.8306C44.7305 11.9519 44.7959 12.1106 44.7932 12.2706C44.7865 12.5919 44.5025 12.8839 44.1759 12.8946C43.8412 12.9012 43.5519 12.6172 43.5452 12.2732C43.5385 11.9306 43.8092 11.6452 44.1492 11.6386L44.1452 11.4186ZM55.8345 6.82924C55.6505 6.5599 55.4319 6.50657 55.2825 6.50924C55.0532 6.51324 54.8479 6.64124 54.6399 6.78257L54.2612 7.04524C53.7052 7.4279 53.1492 7.80924 52.6039 8.2079C52.5185 8.27057 52.4825 8.27457 52.4719 8.27457C52.4652 8.27457 52.4065 8.26924 52.2279 8.05857C50.9999 6.6079 49.6279 5.29457 48.1345 4.11857C47.9199 3.94924 47.9039 3.8879 47.9039 3.8879C47.9039 3.88657 47.9065 3.85724 47.9745 3.7719C48.2465 3.43857 48.5079 3.09724 48.7679 2.7559C48.9332 2.53857 49.0985 2.32257 49.2665 2.10524C49.3985 1.93857 49.5705 1.6799 49.5305 1.3959C49.5065 1.22257 49.4092 1.07057 49.2385 0.94657C49.1065 0.85057 48.9679 0.803904 48.8279 0.806571C48.4812 0.813237 48.2412 1.13057 48.1612 1.23457C47.5639 2.02124 46.9652 2.80524 46.3505 3.57724C46.2505 3.70257 46.1412 3.87057 46.1719 4.06257C46.1919 4.20257 46.2772 4.31857 46.4305 4.42124C46.4932 4.4639 46.5172 4.4919 46.5239 4.49457C46.5172 4.50924 46.4879 4.55324 46.3865 4.6439C45.4492 5.4719 44.3812 6.02924 43.1239 6.35057C41.7559 6.69724 40.3252 6.75324 38.9412 6.80657L38.7839 6.8119C38.3465 6.8279 38.1265 7.0199 38.0479 7.44924C37.6159 9.82924 36.9559 12.2066 36.3052 14.4212C35.7345 16.3759 35.1345 18.3226 34.5292 20.2932L33.9639 22.1439C33.8172 22.6186 34.2759 23.0559 34.7425 22.8879L36.5852 22.2266C40.7079 20.7612 44.9692 19.2439 49.3052 18.2199C49.7839 18.1052 49.8519 17.7772 49.8545 17.4719L49.8572 16.9439C49.8612 16.0799 49.8665 15.1866 49.9625 14.3159C50.1652 12.4479 50.7452 10.9706 51.7465 9.78257C51.7799 9.7439 51.8279 9.68657 51.8759 9.68524C51.8905 9.68524 51.9052 9.69057 51.9185 9.70524C52.0479 9.87724 52.1985 9.9639 52.3692 9.9599C52.5412 9.95724 52.6879 9.86124 52.8159 9.77324C53.5852 9.22524 54.3612 8.6879 55.1385 8.1519L55.4652 7.92524C55.6905 7.76924 56.2225 7.40257 55.8345 6.82924Z" fill="white"/>
</svg>
