<svg width="62" height="49" viewBox="0 0 62 49" fill="none" xmlns="http://www.w3.org/2000/svg">
<path d="M59.1091 3.27131C58.2477 6.80198 57.3997 10.3353 56.5504 13.85C56.2624 13.8313 56.0731 13.878 55.9811 13.8033C53.5091 11.7926 53.5131 11.7913 51.2504 14.0606C48.8357 16.4833 46.3691 18.8593 44.0211 21.3446C43.0597 22.3593 42.4731 22.346 41.4784 21.362C38.6984 18.6153 38.6397 18.6513 41.4157 15.8086C43.4864 13.6873 45.5184 11.5206 47.7024 9.52331C49.1544 8.19664 49.7171 7.09798 47.8317 5.76064C47.6077 5.60198 47.4851 5.29931 47.0984 4.75798C50.9544 3.84331 54.5077 3.04331 58.0357 2.14064C59.2824 1.82198 59.3411 2.31531 59.1091 3.27131ZM59.7144 0.0739764C59.7824 0.0619764 59.4797 0.0993104 59.1864 0.169977C54.9877 1.18331 50.7851 2.17798 46.5944 3.22331C43.9064 3.89398 43.7997 4.15664 45.8357 6.04064C47.0957 7.20864 47.0837 7.96598 45.7997 9.08731C44.1437 10.53 42.6571 12.1686 41.1104 13.7353C36.0984 18.8126 36.129 18.786 41.3784 23.6006C42.4851 24.6153 43.1731 24.5513 44.1757 23.5033C46.5331 21.034 49.1104 18.7673 51.3824 16.226C52.9704 14.4486 54.1717 13.6846 55.8331 16.078C56.6331 17.23 57.4731 17.0033 57.8211 15.562C58.9611 10.8486 60.1224 6.13798 61.2437 1.41931C61.453 0.535311 61.1837 -0.103357 59.7144 0.0739764" fill="white"/>
<path d="M26.4618 44.6958C26.4605 44.9331 26.3485 45.1691 26.2445 45.5798C24.1338 44.7784 22.0925 43.9544 20.0178 43.2251C16.1098 41.8544 12.0938 40.9824 7.93251 41.2158C6.56451 41.2904 6.36318 40.7678 6.36585 39.6224C6.39118 30.2824 6.40584 20.9424 6.35251 11.6011C6.34451 10.2211 6.91784 9.80643 8.14584 9.7651C14.4058 9.5531 20.1898 11.0198 25.4272 14.5304C26.2365 15.0718 26.5085 15.7291 26.5058 16.6731C26.4752 26.0144 26.4778 35.3544 26.4618 44.6958ZM4.41118 46.5038C3.20451 46.5131 2.75251 46.1184 2.75651 44.8851C2.78851 34.9464 2.76851 25.0051 2.78184 15.0664C2.78184 14.4398 2.57784 13.5544 3.69784 13.6518C4.87918 13.7531 4.60718 14.7184 4.60851 15.4224C4.62851 23.3904 4.62051 31.3598 4.62451 39.3291C4.62718 43.0798 4.63251 43.0944 8.27118 42.9918C13.1538 42.8518 17.7045 44.1611 22.0832 46.4864C16.1925 46.4864 10.3018 46.4624 4.41118 46.5038M54.0005 23.6638C54.0005 23.6638 54.0125 23.6064 54.0205 23.5238V23.3051C53.9938 22.9931 53.8405 22.5758 53.2072 22.5011C52.1672 22.3798 52.2285 23.9678 52.2285 23.9678L52.1725 24.1024C52.1618 31.1598 52.1472 36.9464 52.2325 44.0011C52.2592 46.0984 51.5805 46.5771 49.6125 46.5331C44.1552 46.4091 38.6912 46.4904 33.2298 46.4904C37.4725 44.3051 41.9098 43.1878 46.5512 42.9531C49.9325 42.7824 50.0872 42.6131 50.1365 39.1411C50.2058 34.2331 50.2832 30.5958 50.3592 25.6878L50.3338 25.6784C50.3338 25.6784 50.1512 24.5798 49.4178 24.6411C48.8498 24.6878 48.6138 25.2784 48.5352 25.5478C48.4898 30.4478 48.4512 34.0798 48.4032 38.9824C48.3938 40.0011 48.5432 41.0091 46.9392 41.0971C40.8072 41.4304 34.9818 43.0851 29.3325 45.4344C29.1205 45.5224 28.8392 45.4451 28.3592 45.4451V28.2558C28.3592 24.5731 28.4192 20.8904 28.3285 17.2118C28.2952 15.8384 28.7125 15.0131 29.9325 14.3451C33.1885 12.5611 34.9512 11.6251 38.4845 10.9344C38.6072 10.8944 39.1898 10.6744 39.1898 9.96376C39.1898 9.29176 38.5405 9.14643 38.3378 9.11576C34.5498 9.8091 32.5378 10.7971 29.1032 12.8291C27.9085 13.5371 27.1272 13.5598 25.9325 12.7638C20.3978 9.07176 14.2258 7.67976 7.61384 8.01043C5.90051 8.0971 4.49518 8.35576 4.61918 10.5438C4.66984 11.4398 4.16318 11.7571 3.32718 11.6851C1.20184 11.5024 1.01785 12.8651 1.02051 14.4904C1.04185 24.7718 1.08051 35.0544 0.991177 45.3344C0.97251 47.6198 1.81785 48.2851 4.01651 48.2571C11.8125 48.1584 19.6098 48.2184 27.4072 48.2198C35.1178 48.2211 42.8298 48.2264 50.5418 48.2184C53.6578 48.2158 54.0058 47.9024 54.0112 44.8931C54.0245 37.3931 54.0192 31.1638 54.0205 23.6638H54.0005Z" fill="white"/>
</svg>
