<svg width="44" height="43" viewBox="0 0 44 43" fill="none" xmlns="http://www.w3.org/2000/svg">
<path d="M43.5648 6.80783C41.5368 4.77583 39.5021 2.74783 37.4714 0.719826C37.3408 0.58916 37.1928 0.502492 37.0021 0.513159C36.8114 0.513159 36.6701 0.611826 36.5408 0.741159C35.1528 2.13183 33.7674 3.52516 32.3741 4.91183C32.2368 5.05049 32.2234 5.12649 32.3701 5.27183C34.5901 7.47849 36.8048 9.68916 39.0168 11.9038C39.1528 12.0425 39.2341 12.0585 39.3794 11.9118C40.7621 10.5145 42.1541 9.12916 43.5408 7.73583C43.8474 7.42783 43.8608 7.10383 43.5648 6.80783Z" fill="white"/>
<path d="M18.4722 18.8559C18.5308 18.9252 18.5788 18.9906 18.6362 19.0466C19.1668 19.5799 19.7068 20.1052 20.2308 20.6479C20.3868 20.8092 20.4748 20.8226 20.6442 20.6532C24.7295 16.5492 28.8215 12.4479 32.9175 8.35456C33.1042 8.16789 33.0668 8.07456 32.9002 7.91456C32.3842 7.41723 31.8722 6.91323 31.3788 6.39189C31.1908 6.19456 31.0895 6.18923 30.8922 6.38789C29.5055 7.79856 28.1055 9.19456 26.7095 10.5932C24.0402 13.2692 21.3695 15.9426 18.7002 18.6159C18.6255 18.6919 18.5548 18.7692 18.4722 18.8559Z" fill="white"/>
<path d="M37.9242 13.369C38.1029 13.1917 38.0975 13.097 37.9215 12.9277C37.4109 12.441 36.9082 11.9437 36.4242 11.4303C36.2255 11.221 36.1095 11.1703 35.8869 11.4183C35.4722 11.8823 35.0135 12.3063 34.5722 12.7477C30.9482 16.381 27.3255 20.013 23.6949 23.6383C23.5122 23.821 23.4909 23.9157 23.6882 24.1023C24.2202 24.6037 24.7269 25.129 25.2429 25.6423C25.3082 25.7077 25.3589 25.793 25.4802 25.8143C25.5495 25.7503 25.6269 25.681 25.7002 25.609C27.9469 23.3597 30.1922 21.113 32.4362 18.8637C34.2655 17.0317 36.0895 15.1943 37.9242 13.369Z" fill="white"/>
<path d="M16.5192 28.5864C18.4659 28.1958 20.4139 27.8078 22.3606 27.4171C22.9046 27.3078 23.4472 27.1891 23.9326 27.0878C21.6832 24.8251 19.4419 22.5678 17.2006 20.3104C17.1432 20.3598 17.1446 20.4464 17.1286 20.5251C16.6486 22.9344 16.1699 25.3424 15.6899 27.7504C15.5566 28.4118 15.8619 28.7198 16.5192 28.5864Z" fill="white"/>
<path d="M0.801713 25.098C0.801713 21.3514 0.785713 17.606 0.805713 13.8607C0.82838 9.80471 3.03238 7.52471 7.07105 7.47137C11.323 7.41671 15.575 7.45938 19.827 7.45938C20.875 7.45938 21.867 7.68337 21.8804 8.94337C21.8924 10.2447 20.8857 10.3754 19.835 10.3714C15.6857 10.354 11.535 10.358 7.38438 10.366C4.73638 10.3714 3.66438 11.4007 3.66038 14.018C3.64305 21.4087 3.64438 28.7994 3.66038 36.19C3.66438 38.7607 4.71238 39.81 7.24305 39.814C14.4324 39.826 21.619 39.826 28.807 39.814C31.3244 39.81 32.3804 38.7367 32.3897 36.174C32.4084 31.7194 32.3964 27.2647 32.3937 22.81C32.3937 22.09 32.367 21.3634 33.1684 20.9927C34.3297 20.4554 35.227 21.15 35.235 22.6994C35.2604 27.458 35.2404 32.2154 35.235 36.9727C35.235 37.1767 35.215 37.378 35.1924 37.5794C34.9097 40.194 32.9164 42.2687 30.2924 42.5887C29.2924 42.7114 28.2737 42.718 27.2657 42.7194C20.735 42.73 14.2057 42.7314 7.67505 42.7234C2.91371 42.7167 0.80838 40.614 0.803047 35.8807C0.797713 32.2874 0.801713 28.6914 0.801713 25.098Z" fill="white"/>
</svg>
