<svg width="53" height="45" viewBox="0 0 53 45" fill="none" xmlns="http://www.w3.org/2000/svg">
<path d="M37.8393 28.6828C40.186 26.5521 42.5167 24.4068 44.8473 22.2601L45.9553 21.2401C46.3647 20.8641 46.7607 20.4948 47.1233 20.1134C47.422 19.7988 47.4393 19.3188 47.1633 18.9948C46.9567 18.7548 46.7167 18.6268 46.4713 18.6268C46.2913 18.6268 46.1033 18.6974 45.926 18.8268C45.69 19.0054 45.4713 19.2068 45.2527 19.4081L43.9753 20.5801C40.0887 24.1414 36.206 27.7028 32.3287 31.2708C32.278 31.3188 32.2407 31.3494 32.1647 31.4068L32.1167 31.4414L31.8313 31.4134L31.7233 31.3641L31.6367 31.2934C30.7753 30.4814 29.9007 29.6841 28.9633 28.8294L27.8393 27.8041L18.3153 19.0681C18.1073 18.8774 17.8167 18.6561 17.4193 18.6388C17.098 18.6494 16.8087 18.8348 16.662 19.1254C16.514 19.4174 16.538 19.7534 16.726 20.0254C16.8927 20.2668 17.126 20.4774 17.3313 20.6614L18.3913 21.6374C20.966 24.0068 23.5393 26.3774 26.2073 28.8068L26.2473 28.8414L26.3313 29.2241L26.126 29.4121C24.3113 31.0534 22.5087 32.7121 20.7033 34.3734L18.6047 36.3014C18.0487 36.8108 17.4953 37.3201 16.9527 37.8401C16.478 38.2948 16.4247 38.8134 16.8127 39.2294C16.9833 39.4134 17.194 39.5094 17.4207 39.5094C17.678 39.5094 17.9513 39.3921 18.21 39.1708C18.2527 39.1334 19.2247 38.2414 19.89 37.6308C20.3047 37.2494 20.4607 37.1054 20.534 37.0521L20.5087 37.0628L20.7007 36.8868C22.9487 34.8281 25.1953 32.7694 27.4287 30.6974C27.462 30.6668 27.49 30.6441 27.5167 30.6214L27.6447 30.2934L28.042 30.5054C28.1167 30.5441 28.2007 30.6094 28.306 30.7108C29.1273 31.5081 30.03 32.3254 30.7567 32.9854L31.1673 33.3574C31.3807 33.5521 31.6593 33.6601 31.9513 33.6601C32.242 33.6601 32.5193 33.5534 32.734 33.3614L32.8847 33.2228C33.7433 32.4481 34.7113 31.5748 35.6367 30.6921L35.7073 30.6388L35.7247 30.5908L35.9847 30.3988L36.214 30.5041C36.2887 30.5388 36.3713 30.5988 36.4767 30.6961C38.3567 32.4334 40.2447 34.1588 42.1367 35.8854L44.23 37.7988C44.75 38.2761 45.27 38.7561 45.8047 39.2188C46.026 39.4134 46.266 39.5161 46.5007 39.5161C46.7247 39.5161 46.9327 39.4188 47.1047 39.2348C47.478 38.8321 47.4447 38.3548 47.0127 37.8921C46.962 37.8388 46.9073 37.7881 46.7953 37.6908L44.0553 35.1641C41.9847 33.2574 39.9167 31.3508 37.838 29.4548C37.786 29.4081 37.7473 29.3721 37.666 29.2774L37.4793 29.0561L37.5807 28.9508C37.5807 28.9508 37.7913 28.7294 37.8393 28.6828" fill="white"/>
<path d="M15.4175 29.9093C15.7909 29.8146 16.0309 29.5039 16.0442 29.1013C16.0549 28.6613 15.8255 28.3453 15.4135 28.2346C15.1535 28.1639 14.8749 28.1546 14.6602 28.1546C13.9349 28.1506 13.2095 28.1493 12.4842 28.1493L7.92287 28.1506C7.92287 28.1506 5.7762 28.1506 4.9962 28.1546C4.54953 28.1573 4.18553 28.3226 4.0002 28.6079C3.8482 28.8386 3.83353 29.1373 3.9602 29.4266C4.2082 29.9919 4.78153 29.9919 5.05753 29.9919H9.3602L14.7229 29.9906C14.9762 29.9906 15.2109 29.9626 15.4175 29.9093" fill="white"/>
<path d="M7.38498 23.9041C7.91165 23.9028 8.18765 23.7334 8.32498 23.5934C8.47565 23.4388 8.55298 23.2254 8.54765 22.9761C8.52898 22.2081 7.82765 22.0868 7.41165 22.0841C7.04098 22.0814 6.67032 22.0788 6.30232 22.0788L5.35832 22.0814L1.57165 22.0748C0.510317 22.0774 0.382317 22.7094 0.378317 22.9801C0.374317 23.2254 0.454317 23.4374 0.60765 23.5948C0.81165 23.8028 1.13565 23.9108 1.54632 23.9121H2.71165C4.27032 23.9121 5.82898 23.9108 7.38498 23.9041" fill="white"/>
<path d="M7.506 34.2415C6.61533 34.2322 5.72467 34.2282 4.834 34.2282C4.278 34.2282 3.72333 34.2295 3.17 34.2335C2.79133 34.2362 2.48467 34.3442 2.28733 34.5495C2.13 34.7095 2.04867 34.9202 2.05133 35.1602C2.05533 35.4282 2.17267 36.0482 3.18333 36.0668C3.462 36.0722 3.73933 36.0735 4.018 36.0735L4.66867 36.0722L5.714 36.0615L6.60067 36.0642C6.91 36.0642 7.218 36.0615 7.52467 36.0562C8.14333 36.0442 8.53533 35.7042 8.54733 35.1695C8.554 34.9162 8.47533 34.6975 8.31933 34.5375C8.138 34.3468 7.85533 34.2455 7.506 34.2415Z" fill="white"/>
<path d="M11.2992 21.6178C11.2952 22.0804 11.2925 22.5404 11.2925 23.0084L11.2899 23.3604C11.2845 23.6818 11.2805 24.0138 11.3165 24.3404C11.3672 24.8151 11.6845 25.1111 12.1672 25.1298C12.6779 25.1231 13.0005 24.8524 13.1005 24.3444C13.1285 24.1911 13.1259 24.0298 13.1219 23.8818L13.1179 22.0391C13.1152 20.8924 13.1125 19.7484 13.1205 18.6004C13.1325 16.9911 14.4499 15.6631 16.0605 15.6418C16.3472 15.6378 16.6325 15.6364 16.9192 15.6364L21.6819 15.6404C22.1845 15.6404 22.5925 15.2311 22.5925 14.7298C22.5925 14.2284 22.1845 13.8204 21.6845 13.8191C19.8792 13.8178 18.0699 13.8124 16.2779 13.7964C14.7712 13.8204 13.4992 14.3178 12.6032 15.2324C11.7099 16.1444 11.2405 17.4018 11.2832 18.7751C11.3112 19.7191 11.3045 20.6671 11.2992 21.6178Z" fill="white"/>
<path d="M52.6221 18.7415C52.6208 18.2602 52.6008 17.7442 52.4648 17.2375C51.9034 15.1589 50.0701 13.8149 47.7954 13.8135L41.4808 13.8122C40.9781 13.8122 40.5674 14.2215 40.5674 14.7255C40.5674 15.2295 40.9781 15.6389 41.4821 15.6389L47.7648 15.6402C49.0994 15.6415 50.0074 16.1815 50.5394 17.2922C50.8061 17.8469 50.8021 18.4282 50.7968 19.0455L50.7954 19.2682C50.7954 21.1629 50.7914 23.0589 50.7874 25.1122C50.7754 29.5695 50.7634 34.1762 50.8234 38.7402C50.8408 40.0642 50.5501 41.0069 49.9368 41.6242C49.3301 42.2335 48.3781 42.5322 47.0301 42.5322C42.2594 42.5015 37.4368 42.4935 32.6594 42.4935L16.1981 42.5042C15.2648 42.5042 14.4834 42.2162 13.9408 41.6735C13.4034 41.1335 13.1208 40.3642 13.1221 39.4469C13.1261 37.6509 13.1288 35.8522 13.1208 34.0562C13.1194 33.3642 12.7754 32.9495 12.2048 32.9495C11.9288 32.9509 11.2928 33.0602 11.2874 34.0629L11.2821 35.3149C11.2741 36.6935 11.2674 38.1149 11.2954 39.5109C11.3554 42.4429 13.2968 44.3375 16.2421 44.3375H16.2941C17.1448 44.3295 17.9941 44.3282 18.8448 44.3282L30.0888 44.3349H47.7034C48.3848 44.3349 49.2714 44.2789 50.0821 43.8402C51.7768 42.9202 52.6354 41.4175 52.6314 39.3762C52.6274 35.1882 52.6221 18.7415 52.6221 18.7415Z" fill="white"/>
<path d="M31.954 2.2518L39.046 8.6398L36.082 8.7358C35.038 8.7358 34.19 9.56247 34.19 10.5798V19.5611H29.5046V10.5798C29.5046 9.56247 28.6566 8.7358 27.6126 8.7358L24.8753 8.51047L31.954 2.2518ZM25.0233 10.4398H27.8033V19.4225C27.8033 20.4385 28.65 21.2651 29.6953 21.2651H34.0006C35.0446 21.2651 35.8926 20.4385 35.8926 19.4225V10.4398H38.8846C39.67 10.4398 40.362 9.97847 40.6473 9.26514C40.926 8.5638 40.7486 7.79314 40.1833 7.2558L33.2766 1.15047C32.914 0.805137 32.4393 0.614471 31.942 0.614471C31.4593 0.614471 31.0033 0.797138 30.6553 1.12914L23.702 7.27847C23.158 7.7958 22.9846 8.5758 23.2593 9.26514C23.546 9.97847 24.238 10.4398 25.0233 10.4398Z" fill="white"/>
</svg>
