<svg width="57" height="40" viewBox="0 0 57 40" fill="none" xmlns="http://www.w3.org/2000/svg">
<path d="M39.8148 33.5083C39.1454 34.0217 38.4841 34.539 37.8468 35.0777C37.5841 35.3003 37.4174 35.2697 37.1694 35.0737C35.8054 33.995 34.7654 32.7417 33.9334 31.3697C33.8428 31.2217 33.8188 31.0817 33.9134 30.9283C35.4454 28.467 37.4534 26.3697 40.7854 25.307C41.8374 24.971 42.9308 24.7963 43.7614 24.8137C45.7481 24.8163 47.2974 25.179 48.7494 25.8457C49.0801 25.9963 49.1454 26.0923 48.8428 26.3203C48.2134 26.7923 47.6014 27.2777 47.0108 27.779C46.7814 27.9763 46.6201 27.9457 46.3508 27.835C44.3788 27.0257 42.1761 27.283 40.6908 28.4803C39.2121 29.6723 38.8988 31.4017 39.9201 32.9457C40.0868 33.1977 40.0534 33.327 39.8148 33.5083ZM45.1828 29.223C43.9574 30.203 42.7334 31.183 41.4961 32.1723C40.8721 31.3297 41.0614 30.2483 41.9108 29.5363C42.7534 28.831 44.1734 28.571 45.0974 28.9337C45.3188 29.0203 45.3574 29.0857 45.1828 29.223ZM54.0614 24.1817C54.5974 23.755 54.6694 23.331 54.2868 23.015C53.8614 22.663 53.3748 22.715 52.7814 23.183C52.1361 23.6897 51.4814 24.191 50.8628 24.7177C50.5774 24.9617 50.3748 24.9883 50.0094 24.799C48.2121 23.8657 46.2174 23.4257 44.0788 23.3843C42.0988 23.4083 40.2334 23.787 38.5241 24.5883C35.5028 26.0017 33.5561 28.1443 32.1161 30.6297C31.9068 30.9897 31.9281 31.3057 32.1308 31.659C33.0668 33.3017 34.2641 34.8043 35.8974 36.0617C36.2361 36.3243 36.1374 36.447 35.8654 36.6523C35.2268 37.1403 34.6094 37.647 33.9828 38.1443C33.8148 38.2777 33.6481 38.411 33.6188 38.615C33.5681 38.9523 33.6774 39.2257 34.0841 39.3897C34.5534 39.5777 34.9108 39.4243 35.2401 39.1617C36.8748 37.863 38.5094 36.5643 40.1441 35.2643C44.7841 31.571 49.4228 27.8777 54.0614 24.1817" fill="white"/>
<path d="M56.0555 30.7271C55.4995 29.7178 54.8249 28.7631 54.0169 27.8671C53.5822 27.3845 53.0635 27.2525 52.6062 27.5098C52.1449 27.7685 52.1195 28.2085 52.5529 28.6871C53.1462 29.3431 53.6449 30.0431 54.1115 30.7605C54.2742 31.0138 54.2809 31.2245 54.1182 31.4858C53.3955 32.6458 52.5449 33.7418 51.4169 34.6805C48.6515 36.9818 45.4075 38.0818 41.3782 37.1431C40.7675 37.0005 40.2635 37.1991 40.1289 37.6018C39.9889 38.0165 40.2662 38.3725 40.8915 38.5218C41.9089 38.7645 42.9475 38.9138 43.9409 38.8858C45.6649 38.9151 47.2289 38.6271 48.7062 38.0538C52.3142 36.6525 54.5289 34.2605 56.1102 31.4218C56.2422 31.1871 56.1835 30.9605 56.0555 30.7271Z" fill="white"/>
<path d="M47.0061 31.4484C46.6741 32.5431 45.8567 33.2057 44.4794 33.4711C43.9954 33.5644 43.7874 33.8871 43.8874 34.2697C43.9861 34.6484 44.3207 34.8484 44.8247 34.8364C46.5261 34.7964 48.6314 33.1204 48.7101 31.6164C48.7087 31.3631 48.5314 31.0751 48.0221 30.9937C47.5314 30.9164 47.1207 31.0697 47.0061 31.4484Z" fill="white"/>
<path d="M23.7222 33.9015C23.7209 34.1149 23.6195 34.3282 23.5262 34.6989C21.6222 33.9762 19.7809 33.2335 17.9089 32.5762C14.3835 31.3389 10.7595 30.5522 7.00753 30.7615C5.77286 30.8295 5.59153 30.3575 5.59419 29.3255C5.61819 20.9002 5.63153 12.4749 5.58219 4.04687C5.57553 2.80287 6.09153 2.42954 7.19819 2.39087C12.8475 2.20021 18.0649 3.52421 22.7889 6.68954C23.5195 7.17887 23.7635 7.77087 23.7609 8.62421C23.7342 17.0495 23.7369 25.4762 23.7222 33.9015ZM3.83019 35.5335C2.74219 35.5402 2.33553 35.1855 2.33819 34.0722C2.36619 25.1055 2.35019 16.1402 2.36086 7.17354C2.36086 6.60821 2.17686 5.80954 3.18886 5.89754C4.25286 5.98954 4.00886 6.86021 4.01019 7.49487C4.02753 14.6842 4.01953 21.8722 4.02353 29.0602C4.02619 32.4442 4.03019 32.4575 7.31286 32.3642C11.7169 32.2389 15.8222 33.4189 19.7715 35.5162C14.4582 35.5162 9.14353 35.4949 3.83019 35.5335M28.7275 34.3522C28.5035 34.0109 28.0755 33.8642 27.6942 34.0122C27.2329 34.1922 26.7715 34.3762 26.3115 34.5669C26.1209 34.6469 25.8662 34.5775 25.4329 34.5775V19.0709C25.4329 15.7509 25.4875 12.4282 25.4062 9.10821C25.3755 7.87221 25.7529 7.12554 26.8529 6.5242C31.5515 3.94954 36.5222 2.54287 41.9115 2.60154C43.2742 2.61754 43.7982 2.94554 43.7715 4.42154C43.6955 8.80021 43.6502 13.1802 43.6115 17.5589C43.6089 17.9442 43.8835 18.2722 44.2609 18.3455C44.3049 18.3535 44.3449 18.3629 44.3862 18.3722C45.2742 18.4055 45.2542 17.1629 45.2542 17.1629C45.3035 13.9615 45.3515 10.7602 45.4009 7.5562C45.4075 7.09354 45.4222 6.62954 45.4675 6.16954C45.4982 5.84421 45.6542 5.59754 46.0289 5.56687C46.4702 5.53087 46.8022 5.68154 46.8529 6.14421C46.9115 6.67887 46.9209 7.22154 46.9209 7.76154C46.9222 11.2229 46.9155 14.6855 46.9102 18.1482C46.9102 18.6122 47.2275 19.0162 47.6755 19.1375C48.5235 19.2682 48.5809 18.4189 48.5795 18.1749V18.1429C48.5795 18.1255 48.5782 18.1055 48.5782 18.1055L48.5795 18.1042C48.5795 14.3869 48.5782 10.6695 48.5835 6.95087C48.5849 5.36821 48.4849 3.92287 46.3582 3.9362C45.8209 3.9402 45.4715 3.70687 45.4489 3.13221C45.3755 1.16421 43.9422 1.02554 42.5009 0.990872C36.6529 0.856206 31.1489 2.17087 26.1062 5.15487C25.0275 5.79354 24.3222 5.81621 23.2449 5.09621C18.2515 1.76687 12.6849 0.510872 6.72086 0.810872C5.17553 0.886872 3.90753 1.12021 4.01953 3.09487C4.06486 3.90287 3.60753 4.18954 2.85419 4.12421C0.935527 3.96021 0.770194 5.18821 0.772861 6.65354C0.791527 15.9295 0.826193 25.2042 0.747526 34.4789C0.728859 36.5402 1.49153 37.1402 3.47553 37.1135C10.5075 37.0242 17.5422 37.0789 24.5755 37.0802H28.9969C29.7075 37.0802 30.0995 36.2709 29.6742 35.7015C29.3275 35.2375 29.0129 34.7842 28.7275 34.3522" fill="white"/>
</svg>
