<svg width="46" height="47" viewBox="0 0 46 47" fill="none" xmlns="http://www.w3.org/2000/svg">
<path d="M7.0724 15.7987C5.6844 16.944 4.3804 18.0227 3.03507 19.1347C4.3964 19.992 5.70573 20.816 7.0724 21.6747V15.7987ZM39.1484 15.8053V21.6733C40.5164 20.812 41.8257 19.9867 43.1791 19.1347C41.8297 18.0213 40.5244 16.9427 39.1484 15.8053M19.0977 6.02267H27.0271C26.9804 5.95334 26.9631 5.90801 26.9311 5.88267C25.7244 4.96801 24.5151 4.06001 23.3164 3.13734C23.1324 2.99601 23.0217 3.03867 22.8671 3.16134C22.5044 3.44934 22.1311 3.72001 21.7631 3.99867C20.9044 4.65067 20.0444 5.30267 19.0977 6.02267ZM43.8031 42.9427V20.9707C38.9337 24.0413 34.1244 27.072 29.3111 30.1067C29.6924 30.548 43.4724 42.752 43.8031 42.9427M2.3884 20.9587V42.9293C2.5684 42.948 2.6364 42.8213 2.7244 42.7413C7.3404 38.6493 11.9511 34.5507 16.5737 30.4667C16.8924 30.1853 16.8924 30.0867 16.5271 29.8587C13.2431 27.808 9.97373 25.7373 6.69907 23.6733C5.28573 22.7827 3.8724 21.892 2.3884 20.9587M42.2324 44.1987C42.1284 44.0813 42.0924 44.0307 42.0457 43.9907C37.3217 39.7973 32.5977 35.6053 27.8777 31.4093C27.6711 31.2267 27.5271 31.22 27.3004 31.368C26.0124 32.1947 24.7111 32.9987 23.4244 33.8267C23.1897 33.9773 23.0231 33.976 22.7884 33.8253C21.5431 33.0227 20.2751 32.2507 19.0364 31.4373C18.7111 31.224 18.5204 31.2373 18.2257 31.4987C13.5937 35.6267 8.9484 39.7413 4.31107 43.8627C4.21373 43.948 4.05507 44 4.06307 44.1987H42.2324ZM23.1297 7.93067C18.5684 7.93067 14.0084 7.93334 9.44707 7.92534C9.09773 7.92401 8.94707 7.98934 8.9484 8.39067C8.96307 13.08 8.9604 17.768 8.94973 22.456C8.94973 22.7707 9.0604 22.9413 9.31907 23.104C13.7697 25.9 18.2191 28.7027 22.6577 31.5187C22.9897 31.728 23.2137 31.7333 23.5457 31.5227C27.9884 28.7067 32.4351 25.904 36.8897 23.1093C37.1764 22.932 37.2564 22.7307 37.2551 22.4147C37.2471 17.7733 37.2417 13.1333 37.2604 8.49334C37.2631 8.01734 37.1177 7.91867 36.6684 7.92001C32.1551 7.93734 27.6431 7.93067 23.1297 7.93067ZM23.0911 46.0947C15.7684 46.0947 8.4484 46.096 1.12707 46.0933C0.400399 46.0933 0.4924 46.1747 0.491067 45.456C0.489733 36.8907 0.492399 28.3253 0.487066 19.76C0.485733 19.088 0.721733 18.58 1.2484 18.1533C3.0804 16.664 4.88707 15.148 6.7164 13.656C6.9924 13.432 7.09907 13.2013 7.09507 12.8467C7.07907 10.7573 7.1004 8.66667 7.07507 6.57734C7.06973 6.12134 7.2164 6.03601 7.63773 6.03867C10.2204 6.05601 12.8057 6.04001 15.3884 6.05467C15.7817 6.05734 16.0831 5.94801 16.3897 5.71334C18.4911 4.10401 20.6124 2.52 22.7084 0.904005C23.0324 0.656005 23.2191 0.688007 23.5204 0.918673C25.6471 2.54801 27.7897 4.15601 29.9177 5.78134C30.1764 5.97867 30.4324 6.05334 30.7511 6.05201C33.3817 6.04401 36.0137 6.05334 38.6457 6.04001C39.0124 6.03734 39.1337 6.12267 39.1297 6.50934C39.1097 8.63067 39.1271 10.752 39.1124 12.8747C39.1111 13.2107 39.2164 13.428 39.4777 13.64C41.3297 15.1533 43.1644 16.6867 45.0177 18.2C45.4991 18.5947 45.7191 19.0747 45.7191 19.6907C45.7151 28.32 45.7124 36.948 45.7271 45.5773C45.7271 46.0013 45.6164 46.104 45.1991 46.104C37.8284 46.0907 30.4604 46.0947 23.0911 46.0947" fill="white"/>
<path d="M23.6051 15.8625C22.8171 15.8585 22.2851 15.9585 21.8451 16.2052C20.1678 17.1425 19.9491 18.4439 20.1825 19.9679C20.3438 21.0239 21.5131 21.8959 22.5265 21.8559C23.3825 21.8225 23.8931 21.3612 23.9891 20.5212C24.1331 19.2719 24.2811 18.0225 24.4011 16.7732C24.4971 15.7652 24.6518 15.9225 23.6051 15.8625ZM23.3145 27.2399C19.0758 27.2359 15.5358 24.0825 15.0691 20.0452C14.6505 16.4492 15.8358 13.4999 18.9105 11.5252C23.3105 8.69987 29.0585 10.8652 30.7571 15.9079C31.3598 17.6985 31.4945 19.4999 30.6585 21.2652C30.0411 22.5719 29.0798 23.5412 27.7118 24.0492C26.5851 24.4665 25.5771 24.2559 24.7438 23.3692C24.5998 23.2172 24.5118 23.1345 24.2731 23.2492C21.6385 24.5212 18.7011 22.9372 18.2798 20.0305C17.8771 17.2599 19.3998 14.7999 21.9465 14.1639C23.4198 13.7945 24.8918 14.0079 26.3545 14.2985C26.5931 14.3465 26.5478 14.5132 26.5305 14.6679C26.3318 16.5052 26.1318 18.3439 25.9305 20.1812C25.8945 20.5145 25.8705 20.8492 25.8118 21.1785C25.7331 21.6332 25.9505 21.9559 26.2665 22.2172C26.5665 22.4639 26.9105 22.3692 27.2158 22.2212C28.4918 21.6052 29.1758 20.5425 29.3131 19.1719C29.6971 15.3519 26.5718 12.0452 22.7478 12.1812C20.2131 12.2719 17.8985 14.1945 17.1265 16.8479C16.0891 20.4159 18.0771 24.1759 21.5158 25.1425C22.7358 25.4865 23.9465 25.4372 25.1318 24.9985C25.4198 24.8905 25.5638 24.9145 25.6678 25.2159C25.7718 25.5145 25.8891 25.8185 26.0531 26.0879C26.3158 26.5185 26.1411 26.6745 25.7265 26.8052C24.8678 27.0745 24.0011 27.2559 23.3145 27.2399" fill="white"/>
</svg>
