<svg width="59" height="44" viewBox="0 0 59 44" fill="none" xmlns="http://www.w3.org/2000/svg">
<path d="M32.9136 2.15672C36.9016 2.15672 40.147 5.40205 40.147 9.38872C40.147 13.3767 36.9016 16.6221 32.9136 16.6221C28.927 16.6221 25.6816 13.3767 25.6816 9.38872C25.6816 5.40205 28.927 2.15672 32.9136 2.15672ZM32.9136 18.4647C37.919 18.4647 41.991 14.3941 41.991 9.38872C41.991 4.38339 37.919 0.312721 32.9136 0.312721C27.9083 0.312721 23.8376 4.38339 23.8376 9.38872C23.8376 14.3941 27.9083 18.4647 32.9136 18.4647Z" fill="white"/>
<path d="M12.7822 9.38851C15.4528 9.38851 17.6262 11.5618 17.6262 14.2325C17.6262 16.9018 15.4528 19.0765 12.7822 19.0765C10.1115 19.0765 7.93951 16.9018 7.93951 14.2325C7.93951 11.5618 10.1115 9.38851 12.7822 9.38851ZM12.7822 20.9178C16.4702 20.9178 19.4702 17.9192 19.4702 14.2325C19.4702 10.5432 16.4702 7.54451 12.7822 7.54451C9.09418 7.54451 6.09418 10.5432 6.09418 14.2325C6.09418 17.9192 9.09418 20.9178 12.7822 20.9178Z" fill="white"/>
<path d="M16.7587 24.6633C17.2041 24.1553 16.9614 23.3513 16.3067 23.1887C15.3814 22.9593 14.4134 22.8327 13.4174 22.8327H12.4601C5.6974 22.8327 0.216064 28.3153 0.216064 35.078V36.3607C0.216064 38.0047 1.54806 39.3367 3.19073 39.3367H10.5467C11.0507 39.3367 11.4414 38.9193 11.4374 38.4153V38.398C11.4347 37.8993 11.0441 37.4927 10.5454 37.4927H3.19073C2.5654 37.4927 2.06006 36.986 2.06006 36.3607V35.078C2.06006 29.334 6.71606 24.678 12.4601 24.678H13.4174C14.2494 24.678 15.0574 24.7793 15.8334 24.966C16.1681 25.046 16.5174 24.9393 16.7454 24.6793C16.7494 24.674 16.7547 24.6687 16.7587 24.6633Z" fill="white"/>
<path d="M56.6494 28.033C56.56 28.1557 56.464 28.277 56.3707 28.3957C56.3254 28.4543 56.28 28.5143 56.2334 28.573C54.916 27.5703 53.5974 26.5677 52.2707 25.5637C52.3174 25.505 52.3627 25.445 52.408 25.385C52.5067 25.2557 52.6054 25.1263 52.708 25.0023C53.3227 24.2623 54.4187 24.1157 55.2094 24.6703C55.588 24.9383 55.9574 25.221 56.32 25.5117C56.7587 25.8637 57 26.3983 57.0014 27.021C56.992 27.373 56.8667 27.7317 56.6494 28.033ZM50.1667 36.4063C49.632 37.097 49.0974 37.785 48.5427 38.5063C47.2307 37.5103 45.9107 36.5223 44.5694 35.5223C46.3267 33.2557 48.08 30.9877 49.8347 28.7197L51.08 27.1023L52.0307 27.8237C53.0334 28.5837 54.036 29.345 55.0454 30.1077L50.1667 36.4063ZM43.9027 40.7623L44.084 37.5877L46.7587 39.593L43.9027 40.7623ZM58.9147 26.457C58.7854 25.4503 58.2507 24.5383 57.4134 23.8943C57.084 23.6423 56.7534 23.3917 56.4187 23.1437C54.752 21.909 52.436 22.2183 51.1454 23.8383C51.028 23.9877 50.912 24.1383 50.7974 24.2863L42.5134 35.005C42.4054 35.145 42.2614 35.3637 42.244 35.673L42.004 39.9063C41.9627 40.6343 41.9214 41.361 41.884 42.089C41.8614 42.5103 42.0014 42.8503 42.2774 43.0477C42.4307 43.157 42.612 43.2117 42.808 43.2117C42.9654 43.2117 43.1334 43.1757 43.3067 43.1063L49.0427 40.761C49.2547 40.6743 49.4347 40.5343 49.5894 40.3343L53.3387 35.4917C54.932 33.4343 56.5254 31.377 58.1174 29.3157C58.7627 28.4797 59.0467 27.4637 58.9147 26.457" fill="white"/>
<path d="M17.1453 38.5995V36.8568C17.1453 28.8795 23.9147 22.3875 32.2373 22.3875H33.5907C37.6893 22.3875 41.4067 23.9675 44.1293 26.5195L45.2373 25.1008C42.2 22.3315 38.104 20.6208 33.5907 20.6208H32.2373C22.8987 20.6208 15.3013 27.9048 15.3013 36.8568V38.5995C15.3013 40.6235 17.016 42.2675 19.1267 42.2675H38.6827L38.8253 40.4995H19.1267C18.0347 40.4995 17.1453 39.6475 17.1453 38.5995Z" fill="white"/>
</svg>
