<svg width="57" height="51" viewBox="0 0 57 51" fill="none" xmlns="http://www.w3.org/2000/svg">
<path d="M29.2848 13.6346C30.3301 13.6346 31.1821 12.8066 31.1821 11.7893V1.95598H36.5234V11.7893C36.5234 12.8066 37.3728 13.6346 38.4194 13.6346L41.2301 13.7586L33.7381 20.5293L26.3034 13.7586L29.2848 13.6346ZM32.4101 21.856C32.7728 22.204 33.2501 22.3933 33.7514 22.3933C34.2341 22.3933 34.6874 22.216 35.0434 21.876L42.5394 15.2466C43.0848 14.728 43.2568 13.9493 42.9794 13.2613C42.6954 12.548 42.0008 12.0853 41.2128 12.0853H38.0728V2.25198C38.0728 1.23465 37.2208 0.406645 36.1741 0.406645H31.5288C30.4834 0.406645 29.6328 1.23465 29.6328 2.25198V12.0853H26.2608C25.4741 12.0853 24.7808 12.548 24.4941 13.2626C24.2141 13.96 24.3968 14.7346 24.9554 15.2666L32.4101 21.856Z" fill="white"/>
<path d="M40.3487 33.6815C42.8047 31.4495 45.2447 29.2041 47.686 26.9561L49.1007 25.6535C49.5287 25.2601 49.9567 24.8655 50.3554 24.4441C50.6207 24.1615 50.6394 23.7175 50.3927 23.4321C50.258 23.2721 50.0367 23.0841 49.7554 23.0841C49.59 23.0841 49.4207 23.1481 49.254 23.2708C49.002 23.4588 48.77 23.6721 48.538 23.8895L46.4954 25.7615C42.5287 29.3988 38.5594 33.0388 34.5994 36.6828C34.5434 36.7348 34.4994 36.7708 34.47 36.7948L34.1047 37.0801L33.746 36.7881L33.6554 36.7081C32.7074 35.8148 31.7434 34.9348 30.7714 34.0508L29.518 32.9081C26.1074 29.7801 22.6967 26.6521 19.286 23.5215C19.082 23.3321 18.7967 23.1148 18.4234 23.0961C18.1287 23.1041 17.8647 23.2761 17.73 23.5428C17.5927 23.8148 17.614 24.1148 17.7887 24.3681C17.958 24.6121 18.1914 24.8228 18.4207 25.0308L19.2554 25.7975C22.1327 28.4468 25.0114 31.0988 27.9727 33.7975L28.3594 34.2695L27.9074 34.6788C25.906 36.4908 23.918 38.3201 21.9314 40.1508L19.8287 42.0801C19.2194 42.6388 18.61 43.1975 18.0127 43.7681C17.798 43.9748 17.354 44.5121 17.87 45.0655C18.0287 45.2361 18.2127 45.3215 18.4194 45.3215C18.6607 45.3215 18.9247 45.2081 19.1807 44.9868L21.6354 42.7375C24.134 40.4481 26.6327 38.1588 29.1167 35.8548C29.1487 35.8255 29.1767 35.8001 29.2034 35.7788L29.4034 35.3455L29.9434 35.6255C30.038 35.6748 30.138 35.7521 30.2607 35.8721C31.1207 36.7068 32.01 37.5135 32.8994 38.3201L33.3434 38.7228C33.5487 38.9108 33.8154 39.0135 34.094 39.0135C34.37 39.0135 34.6354 38.9121 34.8407 38.7255L34.99 38.5895C35.9914 37.6855 36.9927 36.7815 37.9674 35.8521C37.99 35.8281 38.0114 35.8095 38.0327 35.7921L38.2234 35.3695L38.758 35.6241C38.8527 35.6695 38.9554 35.7455 39.0714 35.8521C41.0914 37.7201 43.122 39.5748 45.1767 41.4508L47.4327 43.5135C47.994 44.0295 48.5527 44.5428 49.1287 45.0428C49.342 45.2295 49.57 45.3281 49.7874 45.3281C49.99 45.3281 50.174 45.2415 50.3327 45.0708C50.6874 44.6895 50.654 44.2668 50.2327 43.8175C50.1807 43.7615 50.122 43.7108 50.0074 43.6081L47.6434 41.4295C45.2127 39.1908 42.7847 36.9508 40.3394 34.7215C40.2794 34.6668 40.238 34.6241 40.2074 34.5908L39.862 34.1988L40.2154 33.8135C40.2447 33.7801 40.2874 33.7375 40.3487 33.6815Z" fill="white"/>
<path d="M16.2236 34.9705C16.5729 34.8825 16.7783 34.6118 16.7903 34.2331C16.8009 33.8318 16.5916 33.5438 16.2156 33.4425C15.9516 33.3705 15.6623 33.3598 15.4409 33.3598C14.6876 33.3558 13.9316 33.3545 13.1796 33.3545L10.3223 33.3571C10.3223 33.3571 5.81959 33.3571 5.01692 33.3598C4.58492 33.3638 4.23692 33.5171 4.06359 33.7838C3.92359 33.9971 3.91426 34.2625 4.03026 34.5318C4.22092 34.9665 4.58892 35.0558 5.08492 35.0558H9.72359L15.5089 35.0531C15.7703 35.0531 16.0103 35.0251 16.2236 34.9705Z" fill="white"/>
<path d="M7.59469 28.4902C8.11336 28.4875 8.37603 28.3288 8.50536 28.1955C8.64269 28.0555 8.70936 27.8662 8.70403 27.6342C8.69203 27.0942 8.32803 26.8195 7.62269 26.8128C7.21603 26.8088 1.32403 26.8022 1.32403 26.8022C0.596026 26.8048 0.18936 27.1022 0.178693 27.6382C0.176027 27.8662 0.24536 28.0542 0.386693 28.1982C0.628026 28.4448 1.01469 28.4968 1.29469 28.4982H2.55336C4.23336 28.4982 5.91469 28.4955 7.59469 28.4902" fill="white"/>
<path d="M7.72226 39.9263C6.77559 39.9169 5.83026 39.9116 4.88359 39.9116C4.27159 39.9116 3.65826 39.9143 3.04626 39.9183C2.79026 39.9196 2.43426 39.9729 2.19693 40.2156C2.05293 40.3623 1.98093 40.5489 1.98359 40.7729C1.98759 41.0769 2.13559 41.5916 3.06493 41.6089C3.36226 41.6143 3.66226 41.6156 3.96226 41.6156L5.79159 41.6036L6.77026 41.6063C7.09426 41.6063 7.41692 41.6036 7.73959 41.5969C8.19692 41.5863 8.69159 41.3663 8.70492 40.7809C8.71026 40.5423 8.64092 40.3476 8.49959 40.2009C8.28492 39.9796 7.95826 39.9289 7.72226 39.9263Z" fill="white"/>
<path d="M11.958 26.1634L11.9487 28.0501C11.9434 28.3914 11.9394 28.7461 11.9767 29.0861C12.0234 29.5274 12.3074 29.7914 12.7554 29.8101C13.2407 29.8034 13.522 29.5647 13.6167 29.0807C13.6447 28.9367 13.642 28.7781 13.6394 28.6101L13.6354 26.6207C13.6327 25.3834 13.6287 24.1474 13.638 22.9114C13.65 21.0954 15.1367 19.5994 16.9514 19.5767C17.2727 19.5727 17.5967 19.5714 17.9194 19.5714L23.0154 19.5754C23.478 19.5754 23.854 19.1967 23.854 18.7354C23.854 18.2741 23.4794 17.8994 23.0167 17.8981C21.07 17.8967 19.1167 17.8901 17.19 17.8727C15.6007 17.9007 14.2647 18.4207 13.326 19.3794C12.39 20.3341 11.8994 21.6527 11.942 23.0954C11.9727 24.1181 11.966 25.1407 11.958 26.1634Z" fill="white"/>
<path d="M56.2497 31.7739L56.2457 23.0659C56.2457 22.5552 56.2244 22.0086 56.0817 21.4779C55.4937 19.3019 53.571 17.8926 51.183 17.8899H44.371C43.907 17.8899 43.5297 18.2672 43.5297 18.7312C43.5297 19.1952 43.907 19.5739 44.3724 19.5739L51.151 19.5752C52.6297 19.5766 53.6804 20.2019 54.2737 21.4366C54.5737 22.0659 54.5697 22.7419 54.563 23.3912V23.6326C54.563 25.6726 54.5577 27.7152 54.5537 29.7659C54.5417 34.6272 54.5297 39.6526 54.5924 44.6352C54.611 46.1019 54.2857 47.1526 53.5964 47.8486C52.9217 48.5246 51.859 48.8686 50.3577 48.8686H50.3564C45.2084 48.8366 40.0057 48.8272 34.851 48.8272L17.1004 48.8406C16.055 48.8406 15.1764 48.5166 14.563 47.9006C13.9564 47.2926 13.635 46.4259 13.639 45.3979C13.643 43.4606 13.6457 41.5219 13.6377 39.5832C13.635 39.2672 13.5524 38.5326 12.791 38.5326C12.4097 38.5352 11.951 38.7206 11.947 39.5912L11.9417 40.7792C11.9337 42.3419 11.9244 43.9032 11.955 45.4646C12.019 48.5886 14.0084 50.5286 17.147 50.5286H17.203C18.099 50.5232 18.9964 50.5206 19.8924 50.5206L51.083 50.5259C51.803 50.5259 52.7364 50.4686 53.5817 50.0099C55.3844 49.0299 56.2604 47.4966 56.2564 45.3206C56.251 40.8046 56.2497 36.2899 56.2497 31.7739Z" fill="white"/>
</svg>
