<svg width="45" height="44" viewBox="0 0 45 44" fill="none" xmlns="http://www.w3.org/2000/svg">
<path d="M17.984 2.39769C21.9706 2.39769 25.216 5.64302 25.216 9.63102C25.216 13.6177 21.9706 16.863 17.984 16.863C13.996 16.863 10.7506 13.6177 10.7506 9.63102C10.7506 5.64302 13.996 2.39769 17.984 2.39769ZM17.984 18.7057C22.988 18.7057 27.06 14.635 27.06 9.63102C27.06 4.62569 22.988 0.553688 17.984 0.553688C12.9786 0.553688 8.90665 4.62569 8.90665 9.63102C8.90665 14.635 12.9786 18.7057 17.984 18.7057Z" fill="white"/>
<path d="M41.7184 28.274C41.629 28.3966 41.5344 28.518 41.441 28.6366C41.3957 28.6966 41.349 28.7553 41.3024 28.8153C39.9864 27.8113 38.6677 26.8086 37.341 25.8046C37.3864 25.746 37.4317 25.686 37.4784 25.626C37.577 25.4966 37.6744 25.3673 37.7784 25.2433C38.3917 24.5033 39.489 24.3566 40.2784 24.9113C40.6584 25.1793 41.0264 25.4633 41.389 25.7526C41.8277 26.1046 42.0704 26.6406 42.0704 27.262C42.0624 27.614 41.937 27.9726 41.7184 28.274ZM35.237 36.6473C34.701 37.338 34.1677 38.026 33.613 38.7473C32.301 37.7513 30.981 36.7633 29.6384 35.7633C31.397 33.4966 33.1504 31.2286 34.9037 28.9606L36.149 27.3433L37.0997 28.0646C38.1024 28.8246 39.1064 29.586 40.1157 30.3486L35.237 36.6473ZM28.9717 41.0033L29.153 37.8286L31.8277 39.834L28.9717 41.0033ZM43.985 26.698C43.8544 25.6913 43.321 24.7806 42.4824 24.1353C42.153 23.8833 41.8224 23.6326 41.4877 23.3846C39.821 22.1513 37.505 22.4593 36.2144 24.0793C36.097 24.2286 35.9824 24.3793 35.8677 24.5273L27.5824 35.2473C27.4757 35.386 27.3317 35.6046 27.313 35.914L27.0744 40.1473C27.0317 40.8753 26.9904 41.6033 26.953 42.33C26.9304 42.7513 27.0717 43.0926 27.3477 43.2886C27.4997 43.398 27.681 43.4526 27.877 43.4526C28.0357 43.4526 28.2037 43.4166 28.377 43.3473L34.113 41.002C34.325 40.9153 34.5037 40.7753 34.6584 40.5753L38.4077 35.7326C40.0024 33.6753 41.5957 31.618 43.1864 29.5566C43.8317 28.7206 44.1157 27.7046 43.985 26.698" fill="white"/>
<path d="M2.21586 38.8404V37.0991C2.21586 29.1204 8.98519 22.6284 17.3065 22.6284H18.6599C22.7585 22.6284 26.4772 24.2084 29.1999 26.7604L30.3079 25.3418C27.2692 22.5724 23.1732 20.8618 18.6599 20.8618H17.3065C7.96786 20.8618 0.371857 28.1458 0.371857 37.0991V38.8404C0.371857 40.8644 2.08652 42.5084 4.19586 42.5084H23.7532L23.8959 40.7404H4.19586C3.10386 40.7404 2.21586 39.8884 2.21586 38.8404Z" fill="white"/>
</svg>
