<svg width="49" height="43" viewBox="0 0 49 43" fill="none" xmlns="http://www.w3.org/2000/svg">
<path d="M46.6664 26.063C46.6664 26.095 46.6664 26.1244 46.6677 26.147C46.6677 26.1857 46.669 26.2244 46.6744 26.2244C46.6677 26.227 46.6504 26.227 46.6304 26.227C46.5944 26.227 46.557 26.2244 46.5037 26.2257H2.65969C2.49036 26.2257 2.49036 26.2257 2.49036 26.0537V22.3377C2.49036 16.1444 2.49036 9.94838 2.49169 3.75504C2.49169 3.25638 2.62636 2.90304 2.91303 2.64571C3.18103 2.40304 3.46903 2.28438 3.79036 2.28438H45.3917C46.0077 2.28438 46.5904 2.83104 46.641 3.45238C46.6677 3.76838 46.6664 4.08971 46.665 4.40038V4.62971C46.6677 11.7737 46.6664 18.919 46.6664 26.063ZM2.48903 29.2697C2.49436 28.8337 2.49703 28.3857 2.48636 27.9444C2.48503 27.8844 2.4917 27.8484 2.50636 27.8337C2.52236 27.8177 2.5597 27.811 2.62503 27.811C9.94503 27.8137 17.265 27.8137 24.585 27.8137H46.5784C46.6197 27.8124 46.661 27.8124 46.6624 27.811C46.6677 27.819 46.6664 27.8604 46.6664 27.8964V28.5897C46.669 29.3737 46.6704 30.187 46.665 30.9857C46.661 31.5057 46.4904 31.8884 46.1437 32.155C45.9677 32.291 45.761 32.375 45.5184 32.4097C45.229 32.451 44.9317 32.4457 44.6437 32.4417C44.5504 32.4404 44.4557 32.439 44.361 32.439C30.901 32.4377 17.4397 32.4417 3.97836 32.439C3.43703 32.439 3.05969 32.2777 2.78903 31.9297C2.62369 31.7204 2.53569 31.5017 2.52103 31.267C2.47836 30.603 2.48503 29.9244 2.48903 29.2697M16.025 38.9177C16.2944 38.8377 16.537 38.799 16.7704 38.799L22.9997 38.8004C26.113 38.8004 29.2277 38.8004 32.341 38.8017C33.0117 38.8017 33.6544 39.027 34.2517 39.471C34.8597 39.9204 35.281 40.5377 35.5064 41.3057C35.5197 41.3457 35.5197 41.3617 35.521 41.3617C35.517 41.363 35.505 41.367 35.4637 41.3684C35.3344 41.3657 35.2037 41.3644 35.0757 41.3644H34.8437L13.7557 41.3657C13.7144 41.3657 13.6704 41.3657 13.649 41.3617C13.6517 41.3404 13.6637 41.299 13.6744 41.259C13.817 40.747 14.073 40.2937 14.4597 39.875C14.8877 39.4137 15.3997 39.099 16.025 38.9177M22.0144 34.1244C22.0144 34.0777 22.0197 34.0497 22.0277 34.039C22.033 34.035 22.0504 34.027 22.101 34.027H22.1064C23.553 34.031 25.1264 34.031 27.0557 34.027C27.1064 34.027 27.1237 34.035 27.1304 34.039C27.1344 34.0444 27.1424 34.0604 27.1424 34.1124C27.1384 35.199 27.1384 36.1737 27.1424 37.091C27.1424 37.1457 27.1357 37.1617 27.1304 37.167C27.1157 37.1817 27.0637 37.1817 27.0437 37.1817C26.4277 37.179 25.8104 37.1777 25.193 37.179L23.9037 37.1777C23.305 37.175 22.7064 37.1764 22.109 37.1817H22.1037C22.0517 37.1817 22.0344 37.1737 22.0277 37.167C22.0224 37.1604 22.0144 37.1417 22.0144 37.0884C22.0184 36.1737 22.0184 35.203 22.0144 34.1244M48.2557 3.30171C48.2557 3.26838 48.257 3.23371 48.2517 3.20171C48.1237 2.38571 47.7704 1.75905 47.1717 1.29238C46.6424 0.877712 46.0424 0.668378 45.3864 0.668378C31.4837 0.672378 17.5784 0.67371 3.67303 0.667043C3.5237 0.667043 3.37969 0.68171 3.24903 0.708377C2.52503 0.860377 1.94103 1.21371 1.5157 1.76304C1.10103 2.29504 0.901026 2.86704 0.901026 3.51638C0.902359 10.7297 0.902358 17.9444 0.902358 25.159V31.343L0.901026 31.3844C0.899692 31.4257 0.899695 31.4684 0.906361 31.511C1.01303 32.2124 1.31169 32.7977 1.79836 33.2497C2.34903 33.7644 2.97836 34.027 3.66903 34.027C8.78769 34.031 14.2157 34.031 20.265 34.0257C20.3304 34.0257 20.3664 34.0324 20.3824 34.047C20.397 34.0617 20.4037 34.099 20.4037 34.159C20.3957 35.0857 20.3957 36.0604 20.4037 37.0577C20.4037 37.1137 20.397 37.147 20.3837 37.1617C20.3704 37.175 20.3384 37.1817 20.2797 37.1817H20.273C19.7037 37.1764 19.1384 37.179 18.5704 37.1777C18.057 37.1777 17.5464 37.179 17.0357 37.1764H17.001C16.6957 37.1764 16.3037 37.1897 15.9037 37.271C15.049 37.4497 14.2877 37.827 13.641 38.391C13.033 38.9244 12.5757 39.567 12.2784 40.3044C12.0464 40.8764 11.9237 41.4977 11.9144 42.1484C11.9104 42.371 11.9917 42.579 12.1424 42.7337C12.301 42.8937 12.525 42.9844 12.7557 42.9844C19.0317 42.9804 25.3064 42.9804 31.5824 42.9804H36.353C36.3957 42.9817 36.4384 42.9817 36.4824 42.9804C36.8304 42.9737 37.1464 42.7017 37.2184 42.3497C37.2677 42.1017 37.237 41.8644 37.205 41.631C37.1984 41.5804 37.193 41.5284 37.1864 41.479C37.105 40.7804 36.861 40.1204 36.4397 39.4617C36.0557 38.8604 35.545 38.351 34.921 37.9524C34.133 37.4457 33.2824 37.187 32.3917 37.1804C31.1157 37.1697 29.8477 37.1764 28.8837 37.183C28.8224 37.183 28.7877 37.175 28.773 37.1617C28.7597 37.147 28.753 37.1124 28.753 37.0564C28.7584 36.3697 28.7584 35.6844 28.757 34.9977V34.1737C28.757 34.1124 28.757 34.0497 28.765 34.0364C28.7784 34.0284 28.845 34.0284 28.909 34.0284C34.4464 34.0284 39.9837 34.0284 45.521 34.0297C45.6837 34.0297 45.8397 34.003 45.9717 33.9777C46.5917 33.8564 47.129 33.539 47.565 33.0377C48.021 32.5177 48.2504 31.9404 48.2504 31.3244C48.2557 23.8617 48.2544 16.399 48.2544 8.93638V3.33905L48.2557 3.30171Z" fill="white"/>
</svg>
